<mxfile host="app.diagrams.net" modified="2020-07-25T20:23:30.061Z" agent="5.0 (Macintosh; Intel Mac OS X 10_15_5) AppleWebKit/537.36 (KHTML, like Gecko) Chrome/84.0.4147.89 Safari/537.36" etag="NoFPEQ03OMEkZ4pn45Zv" version="13.5.3" type="github">
  <diagram id="60U66ssPFFfLP8g6Ql1Q" name="Page-1">
    <mxGraphModel dx="807" dy="971" grid="1" gridSize="10" guides="1" tooltips="1" connect="1" arrows="1" fold="1" page="1" pageScale="1" pageWidth="827" pageHeight="1169" math="0" shadow="0">
      <root>
        <mxCell id="0" />
        <mxCell id="1" parent="0" />
        <mxCell id="wIRcrk6L0L3zP5zlA5GW-2" value="" style="shape=image;verticalLabelPosition=bottom;labelBackgroundColor=#ffffff;verticalAlign=top;aspect=fixed;imageAspect=0;image=data:image/png,iVBORw0KGgoAAAANSUhEUgAAArwAAAGQCAYAAABMPLOTAAAgAElEQVR4XuydCXwURfbHX/UkgICAIHiiCOIBypEEFJIgrgIeZAIJxPtCyQRvXV11T9y/632sqDAdUBTXVSEJZIIHhwuShDMTDgUPQBAEb/AABJLp+n9eJxPn6JnpnswkIfnV58NHZKpeVX2r5s3r6lfvCUIBARAAARAAARAAARAAgWZMQDTjuWFqIAACIAACIAACIAACIEAweLEJQAAEQAAEQAAEQAAEmjUBGLzNenkxORAAARAAARAAARAAARi82AMgAAIgAAIgAAIgAALNmgAM3ma9vJgcCIAACIAACIAACIAADF7sARAAARAAARAAARAAgWZNAAZvs15eTA4EQAAEQAAEQAAEQAAGL/YACIAACIAACIAACIBAsyYAg7dZLy8mBwIgAAIgAAIgAAIgAIMXewAEQAAEQAAEQAAEQKBZE4DB26yXF5MDARAAARAAARAAARCAwYs9AAIgAAIgAAIgAAIg0KwJwOBt1suLyYEACIAACIAACIAACMDgxR4AARAAARAAARAAARBo1gRg8Dbr5cXkQAAEQAAEQAAEQAAEYPBiD4AACIAACIAACIAACDRrAjB4m/XyYnIgAAIgAAIgAAIgAAIweLEHQAAEQAAEQAAEQAAEmjUBGLzNenkxORAAARAAARAAARAAARi82AMgAAIgAAIgAAIgAALNmgAM3ma9vJgcCIAACIAACIAACIAADF7sARAAARAAARAAARAAgWZNAAZvs15eTA4EQAAEQAAEQAAEQAAGL/YACIAACIAACIAACIBAsyYAg7dZLy8mBwIgAAIgAAIgAAIgAIMXewAEQAAEQAAEQAAEQKBZE4DB26yXF5MDARAAARAAARAAARCAwYs9AAIgAAIgAAIgAAIg0KwJwOBt1suLyYEACIAACIAACIAACMDgxR4AARAAARAAARAAARBo1gRg8Dbr5cXkQAAEQAAEQAAEQAAEYPBiD4AACIAACIAACIAACDRrAjB4m/XyYnIgAAIgAAIgAAIgAAIweLEHQAAEQAAEQAAEQAAEmjUBGLzNenkxORAAARAAARAAARAAARi82AMgAAIgAAIgAAIgAALNmgAM3ma9vJgcCIAACIAACIAACIAADF7sARAAARAAARAAARAAgWZNAAZvs15eTA4EQAAEQAAEQAAEQAAGL/YACIAACIAACIAACIBAsyYAg7dZLy8mBwIgAAIgAAIgAAIgAIMXewAEQAAEQAAEQAAEQKBZE4DB26yXF5MDARAAARAAARAAARCAwYs9AAIgAAIgAAIgAAIg0KwJNEmDNykpabIQ4gIr5N1u94Xe+ikpKYX8dymlw+12/2BFTkuvO2jQoO6apk0hogFE1MPtdut7xMtU07RHKysr3S2dE+YPAiAAAiAAAiBw5BBoqgbvP4QQk61g9Bpm3CY5Ofl7IjqWiLo2tMGbnJz8dymlUBTlw4qKiqVW5tAU6iYnJ88kohu9Y/FyTU5OrmC0UsoUGLxNYaUwBhAAARAAARAAAbMEmqrByye8/yCipUKID81MpqKios5AbmSDV/J4hRAXHqEG7zY+2a0dP7PX5wOD18wuRB0QAAEQAAEQAIGmSKCpGrzeE96lvq4KZgHC4DVLKrhecnKybuD6npjD4I2eJ1qCAAiAAAiAAAg0PoGmavDWnfDGy+AdMGBAp4SEhAHV1dXr1q1b91OkpUhNTT364MGDJxFRR03Tdq5du3a3URuvwWjmhDc5OfksIcTxgSfBAwcO7GOz2fpIKU/SNG21x+PZsGHDhv2Rxsif9+nTp1Xbtm2HHjhwoGLTpk37zLTxrROtwTtw4MBTbTZbX03TBimKsvzw4cPrN2zY8J3V/lEfBEAABEAABEAABGJNoKkavHE74U1KSrpJCHFn7aUsL891RPRvt9v9Wggj9kEieizgM7eUUq2srJxeewK6hIiGB7b38YHVP2dDWNO0C4QQlxDR+b6G8XnnnXdcdXX1y0R0eYCcnezTXFFR8Yrvv9de7vuHlPJhTdNetdlszxLRKCJqy/WklMuFEA+43e6ySBsnOTk50vhD+vAmJSU9K4S4x6CPZ91u9x+9/56SkjJBSsnzq3S73ckBhvZUIprE/6YoyuA1a9as8X6enJycxIfORLTa7XafF2ku+BwEQAAEQAAEQAAEfAk0VYM3Lie8SUlJfxZC/IuIDhLR20KIvVJKNlI5IgEbiH+qrKx8KsAQ+y8RXVX7+XtE9JEQojcRja39t8mVlZUPs8HIl9W80SWklLrvcWVlpW4Eew1KKSUb3HwxTC9eg7d///4nJSQkvENE/YloERF9Wmu4nk9EfWur57jd7jnetr4GrxDiJiI6RkpZqShKOynl2UTUjoh+k1KOraysXBBu65sYv6HBm5KS8paU8goi+oyISqWUvyqKcr6Uckhtf3PcbncO/z0lJeVMKeV6ImqtadrQtWvXrvAxapcRUXot09srKytf8jGUb5ZSzhBCPFpRUfEXfIVBAARAAARAAARAwAqBpmrw1p3wKooSMVrDmjVr/C62GfnwpqSkXCqlfJeIdhLReLfbvSrQcOT/9zXEUlJShksp+eSTDdMbKioqZvkYaHwayaeSZLPZzly9evXntYat4aU1nxPUA3xSqSjKX/bv37/B63aQkpLypJTyfiJiA5ENSF1OraH4nJTybv57QkLC8atWrfqW/+41eGurLdI07f61a9eyQUnsFqEoymw2lo0M+VCbxIpLQ0pKypVSyjf5AUJRlIvWrFmz3IfPeCLi/pndyIqKCjbi2fD/gIj+QER3u93u5/nfakOh8WW5jUTUj4hmud3uG3xksfF7q5TyosrKyv9Z2eCoCwIgAAIgAAIgAAJN1eD1nvCaWiGDC1ZBYcmSk5P1E0QhxB0VFRUvBgpOTk5eSUT8uvwxt9v951rjbAYR3SyEeNg3CoSPIfYlEZ0ihLi6oqKCDT826CIZvGwAnlVRUcEnonqpfWXPp52tAj/zqcOG+slE9LTb7WbD2M/gNfIZTk5OfoOIriaiGW63e6IZmFYM3uTkZB4zu2UY8klJSfmTlPIJdq2orKxMrZ3rP4nob0T0htvtvpb/zedhhOP/srvJp263m0+ovXzWElEnt9t9mpk5oA4IgAAIgAAIgAAI+BJo6gbvUq9rQLhlq6ys9DsFDjzhHThwYFdFUfQLVB6P57R169ZtD5SXkpIyWUrJodBWut1u/XV8cnLyFiLqJaW8trKyko1Hv8InwN5/8F48M2Hwlrrd7mG+gpKTk/XTYp6r1wUisK/k5GQ+LeVT04Vut5v9dH0N3h/cbnfXMHMyHe3CrMFbe4K8UUp5SErZ0+gSX1JS0mghRAkR7XO73UfXjvkSIQS7hmx2u91n1HJ+gIgel1Jm1/oCp7FLRGVl5cpBgwbxRbiPiWiK2+2+C19fEAABEAABEAABELBKoMkbvLGI0uA1zmrh6C4KIQpna/vG7Xaf4GskSyn7V1ZWbjADN5LByxfMDAx0/ZV9uJPYpKSkXCGESkTfut3u4wMM3vVut1v3Q/YtPi4PMTd4k5OTdZcFKeXmyspK3XA1MNJPICI9moWmaX3Xrl276dxzzz2mVatW7A/cUwhxXkVFxeqkpKR32e2hVatW3Q4dOnSvEIL9dB90u91PJCUl3cg+z0KIzIqKCpeZNUAdEAABEAABEAABEPAl0CIMXl9fXE5mEWkLsJHt2ybQZSJc+2gM3qSkJE6wwamUH3e73Q8ZyU9JSblKSskX6Ha73W4Oj+Z7wmto0MbT4E1KStL9rIUQKyoqKoYajXngwIEnKoqyiz/zddVISkqaJYS4zutbnJycfEAIsY7lDBo06GJN09jfd67b7c7yyfzWzu12s/8zCgiAAAiAAAiAAAhYItAiDN6kpKSzhRCbmEybNm06lJeX/xqJUm1EAY6UwNEb9Nfrkdrw59EYvMnJyRzy7EEp5VuVlZV6RIjAkpyc/DQRcYiv+W63O6OxDd6UlJTLpJQcVWKn2+0+JYSRnimlnEdEv7rd7g7eOl4Xjlp3Bw6rVklEz7vd7rtrT4B3ENHPbrf75OTkZL7MtsntdgeGajOzHKgDAiAAAiAAAiAAAtQiDN7k5ORjiYgvsoVM+Ttw4MAhQgjdN5ZdDmoNrz21be6tqKh4zsAIZfeIC6SU13l9fKM0ePliGfsIb3C73RyWzMjg1ePkSimfrKysZJ/XRj3hHTBgQA+bzcbGKD8QpFRWVnKcXL+SlJT0SK17Qrnb7U7zMXg5ri7H2f1OCMHRKTh+8DVut5tPsPmhgf1+RyuKMlDTNL6wVvcZvrMgAAIgAAIgAAIgYJVAizB4a40oPY6sEOKpioqKPxkYr95LYXe63e4Xatv8h42t2lBheixZb/EJybWnVatWvVesWKEbx9EYvLVhuTic2DGBSRdYZu3FLY6IcLSiKKne8F+RXBYifR7CsDadWjg5OXkhEY0QQuRXVFQ4DJhy7N+RRHSX2+3mCAx1xRs1Q0rpEkKka5p2jvfiW0pKyl+klI9w6DJOCFJVVXUcsrZZ/WqjPgiAAAiAAAiAgJdAkzd4pZQRfW55Mpz8wTupEHF4va/g+UTynoSEhHf37du3u23btv2llBwlgQ1bDhV2ntvt/pll1V52KyWizlLKyQkJCW9yvN2AGLcvVlZW3uHT92YiOp2IbmM3Cp/oDd4T2qBLa7WGMsek5ZBc30gpbxVCrNQ0rVpRlDOJiC+r9fH6tXr7imTQRvq8vgZvSkoK++HqsYm9fDwez1eapnEMYH6o4IttOw8fPtz/o48+2htg8HKCj/vYdYGIVnkjT3AdnzBl7A7B63EivrIgAAIgAAIgAAIgEC2Bpm7wmp6X78UyI4O31pC6XkppmD6YbWYOS1ZZWTnft9OkpCQOo8WZ0fTICD4JIYSUck2HDh2GLV26lDO36SUlJUWVUuZ6/z8wtbBRlAauO2DAgN4JCQlTpJSccjioCCGKPB7PHb7hvyIZtJE+r6/By+2TkpKeEEIEnZjXyv5ISnlbZWUlPzT4lZSUlGwpZUHtPz7idrs5Nq9ealMss19vWyHEdKMTedMbAxVBAARAAARAAARaPIEma/AqimJpcXwTQ6SkpHD6YD51fM7tdv/gKygpKYndGvhEl2PtniKl5HBjr1VWVuaH6rA2McQNUsoeXEcIsV0IsayioqIwsA0ba1VVVQ8IIQYKIT70jovj/HJdTdN0H+FQfdXGA+YTTe+p5m4hxG6jxBds0Ho5RfO50Ri84wyU52WqaVpRoL9ubTziTE3TugshON7uN7XhyJ4J5O9j1J7s8XhuqWXirqysZL/duuLDi/szFRLO0oZBZRAAARAAARAAgRZDoEkavC2GPiYKAiAAAiAAAiAAAiAQdwIweOOOGB2AAAiAAAiAAAiAAAg0JgEYvI1JH32DAAiAAAiAAAiAAAjEnQAM3rgjRgcgAAIgAAIgAAIgAAKNSQAGb2PSR98gAAIgAAIgAAIgAAJxJwCDN+6I0QEIgAAIgAAIgAAIgEBjEoDB25j00TcIgAAIgAAIgAAIgEDcCcDgjTtidAACIAACIAACIAACINCYBGDwNiZ99A0CIAACIAACIAACIBB3AjB4444YHYAACIAACIAACIAACDQmARi8jUkffYMACIAACIAACIAACMSdAAzeuCNGByAAAiAAAiAAAiAAAo1JAAZvY9JH3yAAAiAAAiAAAiAAAnEnAIM37ojRAQiAAAiAAAiAAAiAQGMSgMHbmPTRNwiAAAiAAAiAAAiAQNwJwOCNO2J0AAIgAAIgAAIgAAIg0JgEYPA2Jn30DQIgAAIgAAIgAAIgEHcCMHjjjhgdgAAIgAAIgAAIgAAINCYBGLyNSR99gwAIgAAIgAAIgAAIxJ0ADN64I0YHIAACIAACIAACIAACjUkABm9j0kffIAACIAACIAACIAACcScAgzfuiNEBCIAACIAACIAACIBAYxKAwduY9NE3CIAACIAACIAACIBA3AnA4I07YnQAAiAAAiAAAiAAAiDQmARg8DYmffQNAiAAAiAAAiAAAiAQdwIweOOOGB2AAAiAAAiAAAiAAAg0JgEYvI1JH32DAAiAAAiAAAiAAAjEnQAM3rgjRgcgAAIgAAIgAAIgAAKNSQAGb2PSR98gAAIgAAIgAAIgAAJxJwCDN+6I0QEIgAAIgAAIgAAIgEBjEoDB25j00TcIgAAIgAAIgAAIgEDcCcDgjTtidAACIAACIAACIAACINCYBGDwNiZ99A0CIAACIAACIAACIBB3AjB4444YHYAACIAACIAACIAACDQmARi8jUkffYMACIAACIAACIAACMSdAAzeuCNGByAAAiAAAiAAAiAAAo1JAAZvY9JH3yAAAiAAAiAAAiAAAnEnAIM37ojRAQiAAAiAAAiAAAiAQGMSgMHbmPTRNwiAAAiAAAiAAAiAQNwJwOCNO2J0AAIgAAIgAAIgAAIg0JgEYPA2Jn30DQIgAAIgAAIgAAIgEHcCMHjjjhgdgAAIgAAIgAAIgAAINCYBGLyNSR99gwAIgAAIgAAIgAAIxJ0ADN64I0YHIAACIAACIAACIAACjUkABm9j0kffIAACIAACIAACIAACcScAgzfuiNEBCIAACIAACIAACIBAYxKAwduY9NE3CIAACIAACIAACIBA3AnA4I07YnQAAiAAAiDQFAmMmbu2U3XVz2fbhO0szSa6SM2zKVFRtiRUf711Tk6OpymOGWMCARCIjgAM3ui4oRUIgAAIgMCRSUBkFpU9KSXZiegMwylI2i8U+lRK8aYrO/WZI3OaGDUIgIAvARi82A8gAAIgAAItgsDootL+ihQvEVGq2QkLIT44WC1yFuQM3WO2DeqBAAg0PQIweJvemmBEIAACIAACMSZgLyz/E5F8ImqxGl3rGp/2RtTt0RAEQKBRCcDgbVT86BwEQAAEQCDeBOyFZf8homvq24+iKBfPGzv0g/rKQXsQAIGGJwCDt+GZo0cQAAEQAIEGImAvKruGJLHBG5NycP/+9guvH7U/JsIgBARAoMEIwOBtMNToCARAAARAoCEJjJq9vHMrm7ZZEHWOWb+SprnGpd0aM3kQBAIg0CAEYPA2CGZ0AgIgAAIg0NAEYuXKEDhuQUpecfZQtaHng/5AAASiJwCDN3p2aAkCIAACINBECYyZW95L0+SW+AxPVLqyU5PjIxtSQQAE4kEABm88qEImCIAACIBAoxKwzynLIoUK4zSI/a09uzsiOUWc6EIsCMSBAAzeOECFSBAAARAAgcYlYC8sn0wk/xGvUXiEp887WRd8Ei/5kAsCIBBbAjB4Y8sT0kAABEAABJoAgYyCsgVC0Mh4DUUKMaYkK7U4XvIhFwRAILYEYPDGliekgQAIgAAINAEC9oKyn0lQB9+h/DPtnNXtWiW0szq8gs++ql6x64f+fu0k/ck1Lu0pq7JQHwRAoHEIwOBtHO7oFQRAAARAII4E7AWlG0mIPoEGb/9uHQdb7fbxVZ+tDzZ45c2ucemvWJWF+iAAAo1DAAZv43BHryAAAiAAAnEkYC8ofZmEmBAvg1cTMn1+VnpZHKcA0SAAAjEkAIM3hjAhCgRAAARAoGkQsBeUTyIhp/qOxtG/5zvhRieEkEafr//+5+6BJ7w2IY6bm5X6XdOYLUYBAiAQiQAM3kiE8DkIgAAIgMARRyBz3vKh0qOVx2Xgkna4xqWdGhfZEAoCIBAXAjB444K1ZQsdPbv0FJtNDpZkGySFHCwkrRAk1whF2TBvbOrWlk2nZc7+8qLycxKIBklNDiZBJwopV0hFuMmWsMGVef63LZMKZh1PAuNnL2l/0Jb4sSCKuWEqSBQWZ6eOi+f4IRsEQCC2BGDwxpZni5ZmLyjLk4JuE0TnhAYhtkhB75Zkpd7VomG1kMlnFJQ9pQgaL8MbHeuJ5Ouu7PRnWggWTLOBCGQUlt8oSM6MbXdil+YR583PGbortnIhDQRAIJ4EYPDGk24LkT1ywfp2bfb9yuF5JpmfsthMQtzpyhr6vvk2qHmkELAXLOtHQnmJiNLMjllK+YHWhsa/Mzp9r9k2qAcCkQhkFpbPlCRvjFTP7OdSKMNLsoZ+aLY+6oEACDQNAjB4m8Y6HLGjyCwsvViSWBTtBKQUU0rG4bQ3Wn5NsZ29qOx+kvRktGMTRNcUZ6f9N9r2aAcCgQTshWXbiKhH/cnIya7s9IfrLwcSQAAEGpoADN6GJt6M+ssoLLtZEM2o75QEkVqcnZZXXzlo3/gE7IXls4nk+PqORGoyo2R8+vz6ykF7ENAJSCnsReWlRJRaDyJvuLLTrq1HezQFARBoRAIweBsR/pHcdebsZX2kTdkYszkIeakrKx3uDTED2vCCMovK7pGSno1Vz5pHORl+krGiCTlMIKOw/DpBcpYVGpJojxB0pysr7Q0r7VAXBECgaRGAwdu01uOIGY29oGwtCRoQ0wF7qnq7ci7cElOZENYgBDIKy84XRCti2ZkkKinJTrPHUiZkgcDootL+ihR852CECRpv2MTBu+ZmXfyjibqoAgIg0IQJwOBtwovTVIdmLyx7jojujvX4BNG7xdlpl8daLuTFn0BGQdkSIWh4rHsSJJ4ozk59MNZyIa+FE5BSZBaWDZY2MUhoYrCUNeHyJIdQFHIFaWIDyaoNeABv4fsE029WBGDwNqvlbJjJ2AvL+BS2Vzx6UzwyZV5OujsesiEzPgTsBSv7kaheHxfpkj5zjUs7Ky6yIRQEQAAEQKDFEIDB22KWOjYTHTO3vJemybi5HUiSjpLs9PzYjBZSGoJARmHpdYKEJb9IS+NKoA6uzLRfLbVBZRAAARAAARDwIQCDF9vBEoHMwtKxkkSRpUaWKst8V3a6w1ITVG5UAvai8mdIynvjNQhFkSnzxuLUP158IRcEQAAEWgIBGLwtYZVjOEd7YdmjRPRQDEX6iZJE7pLstJR4yYfc2BPILCxbLomGxF5yjUSpKFeXjB36ZrzkQy4IgAAIgEDzJwCDt/mvcUxnmFFUtkRI/8tJF5zS9aPcfj0TrHb0yY+/7H1kxSdDA9u5stOwL63CbMT69sIyGdj9P9POWd2rU7ujrQ7rxbVbDq/Y9WN/v3aafNg1Pn2yVVmoDwIgAAIgAAJeAjAssBcsETA64WWD996UM861JIiI1ny9Z3mgwYsTXqsUG7++0QkvG7z9u3UcbHV0j6/6dH2gwYsTXqsUUR8EQAAEQCCQAAxe7AlLBIx8eGNp8BKJfFd2Knx4La1K41bOKCh7Vgi6x3cUsTR44cPbuOuL3kEABECgORCAwdscVrEB52AUpWFY92M/IimCXmubGdayr77v51sPURrMUGtadYyiNAw7ueuGaEZZJTUZ5NKAKA3RoEQbEAABEAABHwIweLEdLBOIaxxe3Mi3vB6N3QBxeBt7BdA/CIAACIBAJAIweCMRwudBBDILy6ZIojtijUYIWliclTYq1nIhL/4E7EVly0hSeqx7EpKeLh6Xdn+s5UIeCIAACIBAyyIAg7dlrXfMZmsvKNtMgk6PmUAWJBP6u8adH9Wr8JiOA8IsE8iYU3apUOhdyw3DNyh3ZaelxVgmxIEACIAACLRAAjB4W+Cix2LKGXPLLhVa7AwcSfL6kuz012MxNshoHAKxPvnXhBwwPys9PimLGwcRegUBEAABEGgkAjB4Gwl8c+g2hgYOTvKaw4YgInth2WaiWJz8iwdc2alPNhMsmAYIgAAIgEAjE4DB28gLcKR3by8qe5Ek3VaPeWxxZaf1rkd7NG1CBCZPlkrluctLiWRQQhGzw5RE/y3JTrvGbH3UAwEQAAEQAIFIBGDwRiKEzyMSyJy3fKj0aG8RUfeIlX0qCKIXirPT7rTSBnWPDAJjCsuv00jOsjJaSbRHCLrTlZX2hpV2qAsCIAACIAACkQjA4I1ECJ+bIjB+9pL2h5TEp0hQXsQGgkqloMdKxqa9F7EuKhyxBEYXlfZXpHiKiEaYmMQbrT3KnXNyhu4xURdVQAAEQAAEQMASARi8lnChciQCo2eXnpKQqJylebSzicRZUqGzSMpNiqRNRLYtUju01ZVz4ZZIcvB58yGQUbD8LJuNztI03hN0liQ6VgjaSJr8lISyRfMc3Do/56JdzWfGmAkIgAAIgEBTIwCDt6mtCMYDAiAAAiAAAiAAAiAQUwIweGOKE8JAAARAAARAAARAAASaGgEYvE1tRTAeEAABEAABEAABEACBmBKAwRtTnC1TmKqqHRMTE7scOnToWCHEsYqidJFSHktEbaWUPwohflQU5UePx/OjzWb7sWPHjj/m5OT81jJpNf9Zq6qaWF1d3YX3hBCis6ZpXXhP8H959kKIH4joB94PUsofeE84HA7+N5RmTAB6ohkvbpRTY11BRMfabLYuVVVV+n9rfzv49+MA6wpN03Q90bp16x+qqqpYV/wcZXdo1sIJwOBt4Rsg2unn5+ePklJmERH/YeVkqUgpPxZCvKlpmmvSpEkfW2qMyk2OwIsvvnhqYmLiWN4TQoj0aAZYux/ePnDgwMJ7770XD0TRQGxibZxO5zDWEUKIq4ioWxTD+4iI3oKeiIJcE23yyiuv9Kyurr6EiMZLKYdHMczviGiOEGJebm7u4ijao0kLJQCDt4UufDTTnjZt2mibzXa5lHI0EZ3slaEoCh111FHUpk0bv/8mJCTQwYMH9T+//fZb3d/5/32LEGKllHK+EGJhbm7ummjGhjYNTyA/P/8MKaW+H4QQf/AdQatWrfT94Lsn+O9cvHvB97/V1dW+zQ8Q0du8H6qrqxfceuutext+dugxWgKqqo6UUo5SFIUfgE6zoicCdQX0RLSr0LTaTZ8+Pdnj8VysKMolgUauV08E6grWCUa/HwG64nsimktEiz0ez2Loiqa17k1tNDB4m9qKNMHxOJ3OmxISEu7weDwDvcPr3LkznXTSSXTaaafR8ccfb3nUO3bsoJ07dzhG6jcAACAASURBVBL/99dff61rL6UsFkJMdTgcCy0LRYMGITBjxozTq6ur7xRC3OHtMDExkU488UQ65ZRT9D3hNW7NDujnn3/W9wLvia+++qqumaIo32ua9rzH45mKHzOzNBunHusJm812p6ZpA7wjOPbYY/U9wX+6dbN+wMt7wrsvfPUEEc0jomnQE42z1mZ7nTZt2nBFUVhP8JtAvRx99NH6fujevbv+X6sllK4QQnwtpfz3/v37X8AbIqtUW0Z9GLwtY52jmqXT6bxCCHErEfFrSV1BsVHDhi7/kMWqfPPNN7qRwz9sP/xQ58r5lqIoUydOnFgaq34gp34EZsyY0dnj8dwhhLhHStmxbdu21KNHD31PnHrqqWSz2erXQW3rAwcO6PuB/2zZUhOyWVGULz0ez5TWrVtPvemmm/xfEcSkVwiJlkB+fv6VUspJvnri5JNPJv5zzDHHRCs2qJ2RnmA3GCHENOiJmGGOiSBVVc8lIs6ieQsL9D748J6I5oAk1KCMdAURsRvMFIfDMSMmk4GQZkPgiDJ43x6ZfYOQkv0D+0uiZEHkJqL1UojSKxYWvtZsVqWRJ5Kfn2/XNO1WIcQoHgobuH369NFP7uJZpJS0adMm2rhxI/3000/ermZKKafm5eVVxLNvyA5PwOl03mGz2e7WNK0nn+b27dtX3xPt27ePK7rvvvtO3w+bN2/W+xFCbJJSvuhwOKbFtWMIj0jA6XRmEtGkJqInXpFSToOeiLhsca0wbdq0k2w2G5/o3iWlbNOpU6c6XSFEfM2NQF0hpVyqKMqU3NxcdnlAAQGK7w6MIeDZI7JmSqIbQ4kURK/mLCq6KYZdtkhRTqfzcSHEAzz54447Tjdqevfu3aAsqqqqdMN306ZN8tdff+U9KqWUd+Xl5b3QoANBZ6Sq6glEpBJRhqIosk+fPoKN3Y4dOzYond27d+uG77Zt27yG77s2m23izTffvLtBB4LOdAKqqj5fe4LX6Hpi48aNct++fbqe4DE5HI4XsUwNT4AfgIQQzxBRr/bt22t9+/ZV+PeDH5AbsgTqitoDk9sacgzoq2kSOCIM3rdHZLn4B9cEwpIrFhXZTdRDFQMCqqqyYZObmJgohwwZIs4666xG5cSXmtjwdbv5IF8v/JrqrkYdVAvqfOrUqck2m20WEfXhh55+/fpRly56ZLFGK+z2UlFR4XV92SyEuAYXHRt2OVRVfZeILk1ISJBDhw6FnmhY/E2yN1VV/0JEj/DgkpOT9YMSvsjcmIV1xZo1a+jHH3/kYSyrqqrKuv322/X/QWmZBJq8wfvWiCyHIHKaXR5JlHfloiI23FBMEnj55ZeP5tvwRDSEfe6GDx9OXbt2Ndk6/tU+/vhjWr58ubej9xwOx2Xx77Vl9+B0OjOEEPygSSkpKZSUlNRkgBw6dIiWLl1KX375pXdMYx0OB19iQokjAVVV2XGfv4i927VrRxdccIHup9tUiq+eEEK8m5ube3lTGVtzHoeqqm8S0ZU8x9TUVN2FoamU/fv367pi165dPKQ9QoiM3Nzcuh+TpjJOjKNhCDRpg3f2yLEjpBSWb+sLIUfmLJy7qGEQHtm91MZP3c6z4B+viy++mDikVFMr27dvpw8++IA8Hg8PbbPD4TijqY2xuYwnPz///6SUf+X5XHTRRdSrV68mObWysjL9DUBtud3hcLzUJAfaDAbldDr7CyHW8VT4lP+yyy5r9BM8I6zQEw272VRV5Qti5/CFVf7t4MurTbEsXryYvvjiC31oQoibc3NzX2mK48SY4kugSRu8b1889j4S4inLCKS8/4rFc5+23K6FNZg2bdpgRVFW8bTPPPNM/cSmKReOyVhQUEB8M5eLw8GH/yixJKCqKgdyv4hlZmdnN7oLQ6S58WW2JUuWeKvd63A4novUBp9bI+B0OvsIITZyK77AevnlTfvgNEBPSIfDoVibMWqbIaCqKvtME0drGTdunOVQhGb6iGUddm9Yu3YtdEUsoR5hspq0wRDpoloo1rjAFnkX8m1aRVH0gKfsc8V/jpRSXFxM3377LQ93hcPhGHqkjLupjzM/P/81KeX1PM4JEyYQJw45EgobOLNmsauxHr5sGEJUxW7VakPR6X6PR7CeWO5wOFJjRwWSnE7nCiHE+RxizG4/cq7NcJzv9957T19AKeUFeXl5y7CaLYdAEzd4xy6RJCynHhQkl+Ysmnthy1lGyzMVqqru5AMbDgY/ZsyYiAL27f5Gr9P+ROtJJiIJl5pGP33xJR3VuRO16Wwubudrr71G7MtJRM85HI57I/WBz8MTUFX1MSJ6kGvxfoiUJKDqwG/005YvqNPpPSmxbewvpxzcs5d++3EvdexxCimJkQ3vX375hd566y19kpqmnYt01bHZ8aqqctrvvuzWwu4tkUpD6Ik2nTrSUcd2jjQU/XMfPfGMw+G4z1QjVApLQFXVZ4nontatW9MNN9wQkZbV73JEgQEVdPl7fqJOPU8loUQ+zP/0009p2bIaOxe6wirtI7s+DN4je/2iGn1+fv4STu/IMVSvvvpqQxn7v/mWtpQsoF+276QfP9tMh3+pyYbWqsPR1OXM3tShR3c6PWMUtTv+uKjG8O3aDbSrbBX99MV22vPZFtJqU8u2O74bHdO7F3Xs0Z36XndFSNm+Bo4Q4o+5ubmshFGiIDBt2rSJiqLkc9Nwp3jbFvyPvt+wkX7auk1/QPEW/qHp1Os06tqvL502yi/DsKXRbHx9Nv28fQft3byV9n/zXU1bQXTM6b30H7Ou/fpQjxGhn2M5ZNmiRbrr/s6EhITzEbLMEv6gyqqqsp/jTZxVkV9ZG5V9X39LW+dH0hOXEH+voymh9MRRXTrTMaf3pA6nnkxnjLMTG8FGxVdPSCn/mJeXBz0RzULUtsnPz79XSsmhx+jKK6+kDh06GErb+Prb9PP2nVF/lyMN0UhXKAkJ1PnM06lTzx50Utp5dNzAfiHFrFixgj76iN2PoSsisW5On8PgbU6raWIuqqpO5+w3HAQ8MzPT8CTvi/cW08cz/0sHf/o5rET+kTnnpqup56UXm+j59yrrnDPp86L5Edt0PuN0GnTfbfopn1HhCyoLF9bcaZRSTsjLy5sZUSgq+BGYPn36cE3TOMzUURx67MILjQ3K5f98ir4qWxmR3slp59PQv98fsZ5vhZ+37aA1z7xIez7fGrFdj5EX0uD7bg9Zj0PY1YaxW7h///4xSDEaEalhBafT+YwQ4l5FUSgnJ8fQsDGtJ47pSOfceA31vDTyCbHvYMzqiXbHdaOUe/LouKT+hnPxeRDiC0s35ebmvhodlZbdilNHCyH0y14jR47UsywGFn5gXfP0S7Tn85oMieFKpO+yUVsruuKMrAwakBcydL/u2sAuDkS0sFWrVpnI4BhpxY78z2HwHvlraHoGTqczj9NwcoNhw4aRUZzdlY89RzuWlPnJHP7UP+v+f+n9fw/q75QL0+j8h+4xNY73brqDft3lnytg+FMP1xzlEZGR/IGTJlDvscYXZXwMHP4xG4yYrKaWQa80e/Zs2969e1cTURKnBx49enRQ4x8/+ZyW3Pd30qqqAvZEzZod+OY7Wv2Mf5x/W6tEGv70P6nLWZEDaXw+dz6tmxb8nFKz5yTtKl9Nm+e949c3GziXvx460Ro/BPHDkJRyel5eXq55IqjJBHz1RCjDZuWjz9GOpVb1RDqd/9DdpiC/d9Pt9Ouurw33XCg90T/3BjpznLE/qVdPCCGkpmmDkZHN1DLUVcrPzx8kpWRdEfIt0Oa579DaacHBD7y/H7uXr6LP5wZ8l4/vRpfPMpc00UhXnJE1mk4cMjjkb8fRJ51Il840zlfEp//z58+nffv2QVdY2w5HbG0YvEfs0lkb+JQpU1q3bt2aFVa/UK+tPytw0fr84AzNrLC69a+JrTh7ZLZhx+F+bLwNltz7V/r+40+C2o8tmkWJ7dvpr7HfuX6SofwRU5/SX2EalQULFnhjss50OBwTrJFpubVVVeWj0hfYtYVv3gdmT5MejeZcOt4QUM7CQv3fty9YEmTwehuMf39OWJ+6fbu+pndvMj6t9cpfO/WVIIOX5Xc952y68Fk9zn1Q4R8yl8ulR/OQUg7Ny8tb0XJX2drMWU+0adNmtZTSsp648Ol/6m4t9dUTZX97lHavqks2UzcBr/zD+/bTvCz9bmVQMaknXnE4HDdbI9OyazudzplCiBs57NioUXrGeb9i5ru8btorQQav/l0+tw9d+Mz/hQW8d/MXtOi24DdHbPAOyKtJsBrqtymcrvA9/VcUZcjEiRMjv8Zq2VvhiJ49DN4jevnMD15VVT5aeY4TS7ArQ2CsXfajXXyHnlE4qPAJbLf+54RVKvzhxS88oftQGZVt739Aa56davjZmKJZ1CqCwcuX2Ua/Po0UgzSVX3/9NZWUlOiycfPW3J6YNWtWu99++40fgPoMGTKEzj333KCG7udV2vqOcRhsMwZvr9GjKPnO0AesfHLMPsFGJZLBy20G3XsrnXaJ8WtyDj/EYYiI6HWHw2FsHZlD1aJqqarKr2qejUZPmDF4dT3x4hPE7kpG5es1lVT6l38ZfmbG4A2nJzjlLJ/ocUE0D/Pb2ul0DhNCfMgtLr30UurevXtQYzPf5VAGb6TvMr9dmn9tHh3c+1NQv2YM3kjy2e+/NmU5dIX5bXFE1oTBe0Qum7VBP/fcc52OOuqo1UKI3kauDNUHD9GyP/8f/WBw+so9mTV4jz3nbLrgsb+RrXVrvwHya/EP7noo5KDNGLzc+HT7JZR0+0RDOeXl5bRxo248veVwOK6yRqjl1c7Pz79PSvnUcccdpz8ABRY2dNngDVXMGLzcNuXuPOp52YggMeymwKe3keSHOuH1trvo+ceoy9nBrhMcwWPu3LnEp71E9AeHw1EXrLflrba5Gc+cObPT4cOH+SEohJ44SMv+/EhIPWHW4OUTt2EGeqJq/wFa+qd/EJ/mGRUzBm8kPeFNViKEeDM3N9f4xq45XC2mlqqqHP7kilCROjbPe5fWTn054nc5nMHLjUN9lytfmE5bSt43lG/W4A0nn7OwvfNOnasFdEUz3tkweJvx4nqnlp+f/5CU8lHOpMYZkgLLzmXLacUj+sVbw2LGpcHbcPD9d1CPEf6R5Nivi/27QhWzBi+3v+zVlwxDo7FhM2/ePOKYrEQ0yuFwWM7Q1wK2gj7F2hSxbNicxtmRevYMdhVZ4LiXft72eySGQDZmDV6OrjDSGXwxfkHuPXpEhlDFzAkvt+01eiQl3+kwFLNhwwZauXIl+3YX5ObmGvtmtJRFNzFPVVX/TET/4hM8PsmzqifMGrwsd/Cf7qAeF/vrie0Ll9Dqp/39wX3HYNbg1fXEay9R+xOCQyhCT5jYCD5V8vPzR0kpdWszIyODTjjhhCABCxz3EF8mi/RdjmTw9rp8JCXf5f9d5jB37954W0jZVgxevgfC90GMCiev4SQ2UsqCvLw86Apr2+SIqQ2D94hZqugGOnPmzONrT226s7HLRm9g+fTtubTh5f+E7MCKwXvG2NE0YFKNT5W3lP39Mdq9siKkfDM+vN7GQ/92P52cfr6hrHXr1tHq1atZaRXn5eVFDi4cHdIjvpXT6fy7EOJhNnTZ4A0sh37+hYrH+69hYB2zBi+3G1Pwqh7OzlusyI90wtv5rN508ZTHDdeE01DzKe+ePXt4T1yel5fH0ShQDAioqsqWDD8EnRytnrBi8BrpiUgPxlYMXo4UwhFDjIpXTxDRPIfDMRYbIjQBVVWLicgeKhOnle9yJIO385m96eIX/L/LX5WuoOX/FzppqhWD98TzUyjtn8ZvGjmRESc04qIoyuUTJ06ErmiGXwwYvM1wUX2n5L2YxBEZ2J3BqLinqLR1/kI9EsJJQ2tuvNaU37eH99Lad+uNfS690RWMLiC8P/Fu+uXLnbprhJHsY3r1qLu0tv/b7w3H6JXf5+pxdM6Nxh4LbOCw0vrhhx9wWSnMvlZVlW8OnsWuDOzSEFi+rdxAHz5Ys1a+ETR860XaD7uWr6bNc2v8JS94YjIdN/B3H+E6+YpCw5/4h98+8/ZhVr6SYKPs+W+FvBy3adMm4tfYQog3cnNzr23mX/eop+f18Q+rJ2p9ujnc04lDUoK+y0JQ3aW1aPTEkj/+jb7/aFNIPeGVz5fWftq6PbyeuGYcnXNDZD2Bi0qht8z06dOTNU3TTyrGjh1LXbt2NaErrP927CpfpV9MVWy132Xb78kjPn71Tdr03wKqicYwKOh3if8hkq7w/nZwbPdR+f8OOWFORsFJKaSUs/Ly8iJn1Ij624aGjUUABm9jkW+gflVVdfHbqFCXDXgY7Jf3TcVa6j12NA0MOJ01M8yqfftpbu2t6YSj2lBW8Rt+zQpHX0Wew4fJ67pgRqZvHf7x9CqtE89LprT/4zevxsUnX/q/HA7HX6321dzrT5s2bbCiKKv41SS/ojQqn80ppvXTa1L1ek9yrXJZO21mncEbGMGjLhoIx3h9f45V0Xp9X/kjXnqKjultHMHjt99+0zOwVVdX/9q2bduTr732Wt2pF8WfgKqqnLHjYr6BzzfxjQr7+X9TsY4ixTcNxdY3uoKRnijKvIaqfztIvifFVtbJV3640zyWCT0RmazT6XxACPH4SSedpEdxiZuu8InEMuLFJ+mYM3rVdeWN2OF7kht55P41vNEbbK1bUXbJmyGbf/nll8QRf4hol8PhCH4VarVj1G9yBGDwNrElGT97tq0q8ZQBmseTREKmkSRFCrlC0bR1raS2YU7OhfvMDvmll17qnpCQsKNdu3bymmuuCbnWqx5/nr783zLd4D3n+hxD8Ynt2un/XrV/f/DnkuoM3g6nnEyXzHjer07J1bn02w8/Ersu+Bwa+9Vh+YayiWjvlu11Bm+km/8+N7HXOxyOAWZZeevZi8vOpMPaQKEoQyXRqULKFVIRbrIlbHBlnv+tVXmxqD+6ZPlJ4qCHx3SelDJNCFohSK4RVcqGeVemRs7W4DMIVVU5ts+T4TKq7fywnFb8q8bvduzcGsM3sITdD0TEmZC8yUWG/PWP1H3Y0DoRdfIVhcYWGucAsCLf/taMsCmpvWHrokk6MH72kvaHhdJPU5QBQoohPAnv9/G3Dp3WLxzV3+ALEYtVDy+D9cQh5cSBpIiBxHuChNBIW8l6wuq4pk6d2tNms21t27atvPbaayPqCTZ4+15n7OYYbt2kpLpwYkZ64v1b7qJfdnylG7ydegUnNWAi4fSEr/zTMy6hpDuML7iyHB89sc7hcAy0umJj5pb3kprWT5IYJAUNEVKUSU1bJaVt7fycobusyotV/eBxRa8r8vPzF0opRwwePJgGDDBWpTuXltOKR+unKz5+7e260IMZb86go7r8nl7ePSVfz+THBm/f66L4bSKiuWNrgrQcdWwXyvivnlAyZPnPf/7jDWc4Mi8vT0/baLbYi1ceR57qfoKUZCm1ISRoJwmxkjyeDa5xwzaYlYN68SMAgzd+bC1JziwoPU+SeIgUSiVJx4ZozDey3CTk866s9IhHY06n82YhxIw+ffpQWlpayPFwGkg2UEIVs1EauL1R9pxwIWu4jffk98C339H864zj8HrHFi4UlbcOn+jx5RRFUVImTpwYHNDTYKIZReXPk5SjBZHxUWFNm/VE8nVXdnroG36WVj18ZXth6R+J6HoiETpHJtEWKcW7JeNS7zLTdX5+/gdSyj9wkglONmFUftm5i96/+c6w4qz48F768hQ6uvtJdfJ+2bGL3r/FnPxIPrycsjZS4HqO3sFRPKSUc/Py8rLMcLIXlY4nKZhpMhG1Cfd9lEI8VZKVWuMAGOdSpycE8Re6i2F3kg6SILcg8e/i7NSCSENSVZX32dPhMu2xjEh6wooP72kj/6BnUfQtq596gbYvWhpyuFZ8eAf98baIaa69esLj8aTceuutkfWElCKzqPx5ScQ3f38/hgwecYPqCfYJyiwsMzMuTn8235WdFjFL0Msvv3x0dXU1xwFTxo8fTxymzlBX7PiK+EElXPHqikg+vEbf5XDhLLlPKz687Prgm0TJaMz/+9//aMsWPUvcMw6H475I3x3+PKOw7G5BxCndjFP91Qj5TpBYTlJ7vHhc+iozclEn9gRg8MaeqWWJ9sLyfxBJ9qb3j+cVRpIkObMkOz1skgWn07lQCDEinDsDd7Ftwf9ozTMvhezNisHLQcBZCfkWls19hCpWojTwBSW+qBSueEOUKYryr4kTJ4Z1a8iYU3apUMTzRDK8UJ8OpZAftKm25czJGbrH8mKbaDB+9vLOhxPkbCmlhVyscrPUxF0l49PeC9XFiy++2CUxMfGHhIQEmjAhfH4O1xUT6ODe0KmlzRq8bY7pRPa3g0MWFedMoENhUlebjdLAJ8d8ghyusFvD66+/zn68h3fv3t1u8uTJ1eHqZxSWviJIhL+1Fyzg32YMCRPLH7KKvbB0MvFDMVEr03KEeMWVlRo2yUJ+fn6ZlDI1VMQOb1+RjA8rBq+Rnvi8sITWqaGz/loxePnyE1+CCle8Ico4MkUk96fMgrLLJNHzJMg4gLBxR4sPeZQrFsRJT3CXGXPLLhUemmJtXGKt8HiuLc4ZtikUH1VV+Qh/dpcuXSg72zjZkLet2e9yJIP35PQhNPRv/jbmj59upg/ufDDkMloxeE8b9QfiB6Fw5YsvvqDFixdzlQ0OhyOcAauLsReUzSNBwXEdQ3dyiDT5uGt8+mTT32FUjBmBuBm8/x2ecawtMfFMIaivRyPjoyR+fOT8oSGKEHK4JOEfu8bE1AXJpR5ZEyjbqITrk4T4VpOeT21a4uac/82J+6spe2EZZ3Y5z8S0jKp8TQnKMFfm0KDE5bWhp75XFIVuueWWsOK/XbuBPnzA90KZf3UrBu8Fj/89KKd9pJMhs1Ea2nY7lvi0MDDOb+DkfBJRfOJwOPqEmnxmYdkUSXRHlOzZPeNaV1aav8Ny1MJqGtqLyq4hSaFDZkSQL4heKM5OMzw+VVWV446+ESpbkq/o8smP067leuIGw2LW4OVLkKmTgxOaRIrcYdbg7Xv9FdT3WuNXnb4D58QkvC80Tbti0qRJhq8zRhes7K1Q1TISIjielZl1lbTONS7N8utxM6IzCktXCRK+N0rNNPPW+Zo8VcNcORcG6YmXXnrp+ISEhK9N6Qmfy4xGnVsxeC94/B90XJL/i4tv3Oto2UOhM26ZNXjbdutKl778fEQ94ePWsMnhcNSkiDMo9oKyF0iQcUpAM6ug0bWu8bHVE9xtffWXJLqlJDvNMIBufn7+DCnlzeFcn7xTN/tdjmTw9r3uiiC3BY4Rz2+bDnz/gyFpKwavkXwjoTNmzGA9wW8Iu0+cOPErozoZBWV9hSDOrd3JzBYwqLPKlR0ijEiUAtEsMoG4GLxvXpw1WRHE16+P6CKIXs1ZVGT1pMf0nO2FZRzo9BTTDUJU7Nj+6PavB/gSOp3Oy4QQ74SKvRsoquLfTvriXWOXJbNhyTjBACcaMCqLb3+A9nwe9HurVzV7wstZu9iH10zxKi0iaudwOA4EtrEXlnGC9eh/xLwCBY10ZaVZ8vUKNX57UdkIkhSL+MEvurLTggx5VVWfI6K7w/nkecfGwf8X3/kAcXpho2LG4BU2m55975jTTwsSEcm4MWPwclY/lm+meDOvCSGeyM3NDToyYl/dQ7bEX83IilBnhys7zfjWV5TC7UVlO0hScHori/IO7t/ffuH1o/x8jqdPn36Zpmnm9cRz0+iL9/QTsKBi1uANpyc4BBWHogonP1xqYW4XUz1RVPYiSQp/LGhiHQTZRhRnDzEGZ6J9kP4qKH2RhIjbuFRV5RB1g8aMGUPdunULO8Jv3Otp2UP/DFnHjEtDuO/y1pIF5H7B2PfWrMHLmf04w5+ZwkkoOBmFEOKy3NzcoDdmTVVXDF+yJKHjj4kjpRDnSCmPF4qFN0FmwMSwjpBCkyR/IklbSVPKXTnBh3Yx7K5OVMwN3rdHZHEsIuMrnfGYQfxlbr9iUVHwL3Y9+7UXlN1OgtjoikVZ5MpOG+krKD8//zoOr3L66afTH/7wB1N9lFw1kX77MfgtvRmD96gunSnjzekh++EkA5xswKiYOeE94bxkSg8TnSFQrvfyQWJi4ikTJkzY6ft55pzlQ6WilZuCYqJSa0/V0VYuExqJjKES1cULzZNaPP6C5b59qapaSERZvB94X0QqvtEaAuuaMXj7T7yezhwf+m3fqieepy8/WGY4DDMG76j856hjD3PPi5988gmVlpbyj9jLubm5Qa887IWli4hEcFDiSJAMPhdC3l6clR7aR8iCzHjrCafTeb0Q4jVreuIW+u3HvUGzMGPwHnVsZ8r4b2g9wVEaOFqDUTFzwhspioslPTFv+VDpiZ2eONj+6PaxuOQYa/1lNC5VVfkybM9rr72W2rZtG3HHrnpiCn35gfFLVTMGb6TvculfH6WvVwe7WZs1eDkcGYclM1O8frxCiOtzc3NfD2yTUVC6WAhhwd0sdK9CytuLx9VfV9gLS/9KQrmfpOxgZo5Nro6kYpuS+Ke5Wed9Hs+xxdTgbS4nu4HABYn3chYVBqcoi3JlYq2waiwcmuTKSnN6h6SqKluXz55zzjk0dOjvN+TDDfnXr3bTexOC3/Czwcu3pnmzeMOPBcq59JUX6OiTQ3qu6NU52xoHlw8sevQGIuKTm3euN760ZjU8VkFBgZ5wQNO0pEmTJq319llrWHIwYXOWkpk1luR0jUsLf9sughx7Qdk0EmR8PG5mDMF1drT2VPX1NcS9pzah4u8adeMNRRX4GZ/K837YVb6aVj8TnB3r+EEDadi/IkeF84YMMtoT7Ou0cdbvN7h963DGJI4bbbZs27aNFi1axAZvcW5url9SEnvBskkklKlmZZmpZ/TAYaadb53MGBtcumxJk1zj6qkndu6i9wwuNerRFXrWOiFpiAAAIABJREFURFeoj54IdaLnlc/7Yl5tGEQ/pkJQzoKId/T8mkTQE+zjas5KMrO4MdATtfor7uNSVfVnRVE6RHKH8512uO8y12PXts8NMm4OvHUC9R4T+btsJJ8N3j7X5oT9bTIr3zuX5cuX08cff8z/e4/D4fAL3GsvKJ9EQjYpXZFRWOYURMbpJs3sy6ZSR9BuWe1JK8m5YFu8hhQzg3f2iKzrJJFxDKN4jb4B5QpBjpyFReFjmpgYT43CSlhAJMxZoSZkeqvYhBg6NytVfx+oquojRPSXlJQUSkpKMi2l6sABPSTVN2vqbMSwbdmwGfKXeynRxCkAC9q75Qsq/cu/6OBevgAcuZx9ZRadO8H4xCdca+9rKSmlX3iZOBiWNcMIeOCIPLPfa8TD4KqVPs2VnXartydVVb8mouOvueYaalcbZs7MOCOlng6UERiGLFIfH73yBn3yVlGkanWf/+HZR+jYc842XZ8rev26pZTleXl5dSFL4vLwqY9MLm/tqR4V7cl/A+qJfxHRn490PRHOTSLcRpk/f74eoowv9+bm5ta5HDRFPcHzaIhxqaqayOcPHTt2pCuuuMLS9yze32Ur8vnCbPq//mroUhVuUpWVlVRRoefb8LvMGD9dQeWtPVWXRKMrxswpHa4pYomlRWrKlQW95spK44gXcSkxM3jfujhrvRAULnxSXCbQUEKlpA1XLi6KeGsz0ngyi8pvklIGH3NGamjmcymnu8al53JVVVX5tNfB4cg4LJnVEunGNMsb4LiRzsg2Tl4Qrj+tqorWOV+lLSV6inbD0v6E42lA3o0+2XWszeCDDz6grVu38g/ZVbm5uW9x64yC5WcJoXGWsZgXQfRxcXba7+nELPRgLyj7mASFvDRjQVRQVSmVs0vGDf109uzZrfbu3XtICEETJ4aOTxqqL86Ux2vGvrehyvHJA/Q163Cq9UOx3SvW6PL3ff1NSPns1pJ8Ry7x5UWr5aeffqLZs/W7ap86HI46a9keIx9No/EIISYUZ6XOtDpWrm8vKJ1AQhheKIpGnl8bAz2Rnp5OZ59t7SGCZTa2nuAx8J7olWHOtz+QnZGeyCosP7WapHEqt3rCr4+eaKhx1aaZ3h0u4UQ4DPH+LtfIn0n7vg4dFp3jMHMkECUxwfKK+WRndObm5ta9ucsoLJsuiMLfALfcW00DqShXl4wdGjorRgi5GQVlTwlBpsKnRTm0hm72qys7LW5uGTExeGeNHNmutWxvOiFCQxOMVX+HxL721y9cWK9A83F7QtffVsr1JdnpeoRwVVX53V52pFBD4dhwBrX9335HnO53/zff6VU5VmK747pSu+O66emA61P27f6Gftq6TU8TunfrNjqq8zG66wS/Fu3U6zTibEzRFm9oMiK6w+Fw6O/cM4tKr5dSvBatzEjtNI88dX5O+o5I9Xw/j+ePGPcjhLyhOCt9lqqqHDd0y9FHH01XXWWcctXMuPX98M33xDGT+e+8D9oe143aHV+zJ+pT2H/Tux9++mI7/bZnL3U67VTdT7cj//e06L1QDh48SLNm6S+gfnA4HHU5Uu2FZRwv78L6jDtk23q8wo7na0ojPTFixAg67bTorio0tJ5o06lj3X7gfcH/H23x0RO3OxwO3e86s2D5KCm00E/j0XZW207YWp1SPGaw370CMyIbalyqqvKD+4YzzzyTLrjgAjNDC6rjOVxVpyP4t4Pd1dp166o/rHIUjWgeWn078dcV2+jgnp9rfjv0P6dR+xOjC7TCfXhDk0kpC/Ly8uoyrNgLy/hpv96HXiGA/p8rO+3vVmFnFpYVSKLwceOsCm3s+gkJx8cryVNMDN63LsoaJBTiW53NukiNBl/5QVHoWE0mZm8vLHUTCfM+BiZk+laRh6q6llx94Q/5+flLpJTDwyUYsCj6iKrudruJ/2ia9vCkSZP0mIf2GN1sDgVCkDa+OHuYJSfC2gQHobN+1Je6lC+5xqXfPn369OGapi0Jl1K4vl019fb5+TUeSQ6Ho07v2QvLdDeP+IxdVrqy0zlxheViLyx3E8kG0xOcZpr3RksrXj1BRJMdDocem7E2kQBHNIlLkVKMKxmXyhdILZWGGpdXV5gJSWZpAkdIZZ9wdUscDod+4/vS2cu6JtqUmlOfOBQhqbB4XNo4q6IzC8vnSpJ+dxKsymhq9RNIO7Eoexjr5ZiXmBi8b47M7K5Im6WTrZjPpAEEasJzylULiy0/mXuHllFS0VYcPlivE+JI05QKXVYyNu29WJzwRuqrKX/uPbmRUt6Zl5enR8PILCxfJUlGG8vUxHTFk67s1OCgs2Fa2ovKniRJnO43LkWQWF2cnXrejBkzTvd4PJvre8Ibl0E2gFCfE94fHQ6H7hNx2ewlxyfYEuOiWL1Tkq3atCvJSAkKixduyiMXLGjXZl+7uL4x89ETeuSO+rwJaoDli1sXRm+C4nm6XjMR+aQrO92SnuBWDTWuqVOn9rPZbOvrc8IbtwVrAMHeE14hREFubq5+wqsnHhH0Tty6l7TJNS7NslsbDF5rKxITg5e7fHtEFidpCH9N39rYmlrt3VcsKvo9P2oUoxs9p3S4YuBgPuvywaEdI8P0M2lh5YD9VYFJo8RkV3bqw6qqqkSUG60Pb2C3+3bV2AXtT4r9KRDHeuVX2G06H+OXRz0KxHVNvL55RHSNw+H4L39gLywLSnLytyF9lvfu3D5y3J2Awbz80Tbbhzu+9/PZlYKWlmSlWXo9bi8sX0ok/d4bDj+l64YJ555mHAA3DJTP9/x64JEVnwRdhnRlp4mZM2e2OXz48G/R+vAGdlu1/wDt3bJNvxCS2M4yvohLy2GvDu7Zo7szKIl8h6Z+xceH93OHw3EmSwt14eP10ef53diUUprSk9e/s1p3J/ItmiYvnD8+PXS+XINp2QvLeA8FpSaMh55wOp35QoiJR4KeYFQcSYb3cKz0kFdPSCmvzsvL030ojb6T9w8+c+m5XTtaTjLw5ic7Wr33xTd+lyiklEtLxqVb0hOhxnV3Su/Fycd39ksxbWa/Fn72VZviLbvP8t1+3nFNmzbtJEVRvorWhzdwS8f6uxwk/4cf6eBPP1On03qQsCn1UxRE5PXhZc9Ah8OhR86pzXLol1vglKPbrXpkWF/T2VG9A9Mk/Xbju6uHBAxUurLTLA8eBq+15TalyM2IfPvirLkkqFkdrfvOWxC5chYVWUkhGIQtVKzVNzLO29g+McHy093VJaso0OAVUrukeNywBfn5+Y9KKR+yevvaO+ifvvhSj6v4y/ad9OOnn9PhX2sOnFod3Z66nHUGdejRnU696ALq1DO6GPtfr66kr1e5dUN3z6ebSfN4dPnsB3rMGb30mImcGSfa4o3SoGnaJZMmTVrAcjILy5ZLIj9FwwZvygnHWI6Y8WzF5x8FGrxE9JgrO+3PVsacUVT2mJDklwiBDd57Us6wfAF0zdd7lgcavIJoRXF2mj4/VVX5lVxXq1EavPPhhAM/fPyJbuj+vI1zptQU9qNkw5cjJ/S8NPpQthtfn00cr3nv51t1/2BvOaZ3L92X99hzzqLTLoku/KVP9r0VDodD5xHqhLc4K5WfIi3ddjno8Xx1RfHKkwPXPpoYzeNnb2x/yLY3KAlGPPSEqqqPEdGD0euJ7Xos5XjpCU5qsHvFavp5+07iZCjVv/0WpId6XHyBvgejKd4oDUQ0yuFw6ElfMgvLX5Ik66Kb8L/96byzlqSe1MWykepct3VToMEbjZ4INa57Bp2xaHj3riOszv2VDds+DTR4vePyPhx36NCBrrzySqui9frx/C7z4QsnSfplx1d61B9vTGjFZtPTzvMdkBPOT6YTBkXnEeQTpeFRh8PxF56Pvaj0EpLCLwkFG7wvjBhgOUvq3oNVKwIN3mgvM8LgtbY9Y2bwFo0c261Kis/qkWrP2sgbuLYgbWDOonlRncT6DtXINy+WP2RU6/DtdDrvE0I8ZSUOr3ec66fPoi3F7xJfPAhXbK0S6fTMy4gTDFgpKx97jnYs4ayM4QtHajh3wtXU/YLUSFWDPvfG15RSDsrLy9NjzGQUlD0rBPllv4ilwStIZhVnp8+1Mlj7nLIsUsjPny+WBi8J8awrK/WPPCZVVSuJaKCVOLzcjm9Dr3n6Rfr+Iw7/Gb50PbcPDbrvdmp/wnGRqtZ9zg88a56b5mdEh2p8wuAkSn9E/w2yVLxxeKWU8/Py8upCi9gLy/SHAF9hsTN4RaUrOzVKH94yfa18xxUPPZGfn3+flDI6PZH/Gm12vUdanPSE+3mVtr4TOfFgtHqI2Xr1hKIoKRMnTtQzG2QWlN4mhfALLh1LgzcaPRFqXLE0eH3HlZ+fv08I0c5KHF4e484Py+mjV/4bNtqKd0+fMDiZ0h+xdD5Am+e9Sx/Peov4omSkcsqFaXT+Q8bJjsK19YnDe5/D4XiG6xo9HMfS4CVBs11ZaZZPeGDwRtoF/p/HzODVlceI7BQPyXpd6rI2/IapLSXdc+XiIr8A1NH2bBSl4YozT57DgVx/L/5v3oUQQa/iuW7J1q9zAk54N7qy087hz5xO501CiFesZFDidq4rbg6KkTv8qYf1m69cjAK+c7xD+9uRIyiFyrbGSQy8xUi+1exJLMubaU1RlJ4TJ07UA1lnFJZeJ0j4xYq+4szuc/zX0hz7rw8cPDvwhFdRxOnzxqZyhiLTxT57yelkS9zs24AN3uOOav1ZqD0Raj9IkuLtT7+qu1Wsy1TEda6xqf/hv6qq6mIMZjOtcRs+qeGA8YHFu2a7QySeMJu3PpL8UIknRk57Rr+RbbZ4M60R0WsOh6MuzmNmUdkSKWm4r5ya76NxCcWea7/16c4cv1b1iNLQ9PXEBDq492e/6XJiiI61iScM9UTnTmR/K7KeYKHF42+iQz//Yk2+ST3kK9RITxhFQwjWEyzld10Ral/sOXS478Jt3/q9vfOQ7PVOdvoXZveut57xuELvVW4X7bhUVdXT3pvNtMZ9lf7tUf2tXShdsSlE4gmz3+Vlf3kkKD68N/EE92mYjISILpn+b0uhEn0yrd2Um5v7qnc+9qKyjSSpzj2FDd4hJx6zw6qeNtQVRFFGacClNSvfo5gavNxx7QU2PuWK6mTDyuAboq5HyJFXL5y7KFZ92YvK8kjStFjJ85UjSLxenJ2qH7fm5+fbpZTFJ598Ml12mbkkcaFSvZpJLXzqRcPovAfuCjutd66b5Peq2lvZm1qYn9pDZWga8tf7qPuwQLen0N3NmDGDIzTQoUOHOt555536L6e9YGU/EtXr48GeiLa6stMi5+s16NxeWLaFiDhsWOyL1Pq7xg3bwIJVVeUMQZMGDx5MAwYEuZsG9R0q8x5XNJNaOFL2PTPy1059hTbPC74rknDUUZRVrNvxpsratWtpzZo1JKV8Ni8vTz/x1vdEUWk+SWE9MLGZXuuVjCT2GZ28Q/bVE06nM1MIMc+Snnj8efryf8Epoc2kFjajJ1Y9/m/68n+lQYTNpBY+c5yd+ufeYGZ19DqGeqJ4+elUrfk9hJoWGLli9HqiAcflfRs0ZswY6tYtcrjBbyvX04cP/tNw9pFSCye0PYqy5oX/Lu/8cDmt+Jd+2OpXzKQW5lCal88y/5Prk7TInpeXV/K7rih7nSRdG3mJrdcQQrmhOGuo5cRdmYXlsyTJ66z32HRbVB2V0PG9y873f9qN0XBjbvDyuNSMjLadDrV6WEjqJ0ly3Drz7zdjNLF6iPlekNwopdikkZhx1eJCcynHTHZoL/hwIAkb/1q0N9nEdDUh5ITirHQ90L3T6ewjhNhos9no5ptvjihjx9IyWvmocSQeMwYvd3D+n++hU4bXJbHy65OTTFS+MN1wHGYMXm54yfTnqcOpQW6SQTK/+eYbcrn4MNM/5ir/g72obBlJSo8IxGIFQfRCcXbanRab6dUzC8umSKLgnM7RCPNtI6nUNS5tmPefnE7nHUKIKT169KCRI0dGlL74zgd1/2qjYsbg7XL2GXTR8+wialwW3/Eg7fksvPxQBi9LtJKFzyej1m25ubl1qUHjmAhmH0nPMNe4C6LSH/aC5QNJaA2mJxISEmjChAkR9wS7IrFLklExY/BG0hNm5HNM11CneSz/on8/Sl366PcSw5Zvv/2WiouLuc63Dofj99B0UorMucs/lFLGXE9IIaaUZKWGPxkINeoGHJc3yo+Zh+Pqg4do/jW5dfc8AocfyeCN9F3mpDfvT7zbkIoZg5cbWklO8vLLL5PH4+EDk3MnTZqk5xjW9XT8kkb9qihi2LyxqZZdJuMdqi7SdygOn9e9pY6DbL/36PGQXy+Zs0eMXSJJ+L1uNCNQkFyas2iu5QsGZmTHok7GnGV/ForCKT1jWOQcV3a63ytVVVX1QNmXX3458Y3bUIUvqC29/+8hFZZZg5cvtOmvNQMukHBiicV3PEBadWBEiZoR8evxVu3b6X5ZoU54ud7xKQNo2KN/i8hsxYoV9NFHH3G9fIfD4ZdjPGNO2aVCoXcjCrFSQdIW17i03laa+NWVUtiLyj8noqhOiEP1KzW6rGR8Wt1Fi1deeaVnVVXV1tatW9MNN4Q/BWM/7s/m6MaAYTFj8HLDs3LGUL9bgg8gzMoPZ/CyfH6rwKeG4crhw4fp1Vdr3ky2atXqhJtuuskvnZu9sHw2kfR3BYl6MWsaSk37S8n4YY/WR0xGYdmfBVET0hPbaen9/wipJ8wavK06HE0XPvVwsJ74Yjstve8fdHifcUQ2Mye8zLvbgHNp+JN66O2whdPH8gUlKeXzeXl5fhZVfMJQic2u7NQzIo0r3OcNNS5VVVlBvGombjdnPfu8aH5EXbFu2iv0+dzQkb1CfZeXPfR/ITM8mjV4OePaxS88oV9oC1d27dpFfMIrpfwiLy8v6K2bvbCU3Q8tx8uNsOZ/dmWnhT4ZCNN41OzlnVsr2hYSdEx99lVTaSukvKt4XPqUeI0nLie8sRpsczV4mY+9qHwZxe4EYZ8rO+3oQO5Op/MBIcTj/fr1o/PPPz/ksmxf/CGtfjL0HjNr8HIHSbdPpNPtl/j1tcX1HlW+OCNk/2YNXhYw0vlMRKXlvYgihLgkNzdXj9DgW2J9ouqNaVqffR/rH7JQJ86qqrJLR79IryrfuX5SXXY9o3mZNXjbnXAcXf5a3YFqnSiz8iMZvGZekX/22Wf04Ycfct/LHA5HcOqomgcOfoUWm7cuQpS6slLDW+EmN4u9sIzf7Ru/NjEp4/dqcp8rOz1IT6iqylFCHouoJxYtpdVP6SGtDYtZg1fXE3dMJE7/6lsi6QmzBq9ZPVFUVEQ//PADKYoybOLEiUE+FPbCMp7s7ZYxh2oglEtdWUPrncGtIcblDU3GU4kU1cXsdzmSwXvqH4bReQ/6H37zYcnCSXUeSEFkzRq8ofZcoMCVK1fShg0bDB+C9LqsKwrLfiUh6pdm1NuxoFJX1u9v4aLZa5kFpRmS6M2YjSmaQcSgjSAxtTg79bYYiAopAgZvPOmGl81fHMuxVo1EhjK4pk+f3k/TtPWdOnWinBz/+zS+ckJdHPLWsWLwctioQff6RfShNc9OpW3vfxCShlmXBhYw+P7bqceI0If3/APGP2RCiK9yc3O7h+rUXljG79LrfaJaH1eGwLHF8Idsiyvb+MRZVVU+MfzzeeedR/37G2fJ5JBg7G8drpg1eFnG6Ned1Pa43wMhcKpR/pE0Iz+Swdvh1O76pZRwxecSyv25ublPG9WN5QMHxz2OmVqpMcZjoicohMHldDr7CyHWRdYTb+uXGEMVKwZvNHrCisE7+P47qMeI0C8H9+7dS3Pm6HcTv3A4HCH952PlXx9LPcGDbohxqaqqP2xxemFOQmFUrOiKSAZvh1NOpktmPO/XzfaFS2j1034BM/w+t2LwcsjElHvC653Zs2cTx+zWNC1j0qRJhsfWTVFXZM77sLv0KLdLogxB4uyY6Z84CxJEe4hoCUn5WvG49Dp/6Xh1GzvFHIcRNucTXt0QKFyRpJCH43MdFS0+SXRLSXZayKvPqqqWE9HQcKGoWKGwYuk9djT1vS7H0M8lsX3NA22ocDBeV4RjTu9JI6Y+5TedRbfep8du9UZ7MNp0LD+U7L1b+VVqTZpxXwVnxGz9+vW0atUqNnidubm5obWbbkgsLyOSlmPw1vUr6CVXVlrsToBqIkm8JEj4PzFY2hxyuSsrLY1CRPZQVZWddxeceuqpNGrUKEPJu5avpvLJT+ifeaMxBK5ZpP2w8T+z615zpk5+gE4a+nuCuzr5ikJjC+ouQfuNxYr8sXNfD5n8QkpJb7zxBh04oCc7O93hcISMojG6sOwWhcjY0dzkGihKQsq8secHX1U32d6omq4npKecBLWJWoxQbnZlDX0lVHtVVZcT0RAzeuKMrAzqc+14y3qCYxp4fW/D6QlvtAeresJXfiQ9wS5P7PpERM84HI77QnGZPFkqa88t54w15m/MBgqT9JJrXGz1BJ80ZhSVl4t6jUtOd41Lzw019/z8/L9LKR/u1asXXXSRcfzrWOiKj2e9XXcxdezcWZTY7vfD03XTZtLnc+frer/vtcaHNpF0Rd1vU++eNOIl/98m37n7+HTvS0hIOPHmm28OioXtrW8vKMsjUa/L579ppKXNzx7G4QdjWjijq626qlu153D9M/bEdGS/C1MSE2XrQ9U/z8kZ9n2cujAUC4O3IWmH6Msoi4uJYbmqPVWOd3Mu9PNHDGynqio7vf4zXF70pff9nb7bsFE3eAdOuslE1/5VAn1vvad/3lqzR2brf/U9KbbSyXfrN9YZvF379dX9hEOV9957j3bu3Bn2Cd23bUZh+XWCpNXbsTuFTbmyeMxQNhJiXjLnLR8qNe0tkhTyhNqoU0ny+pLs9NfDDWjKlCmtW7duvT0xMbFbTk6O0s7nx8XbjsOQeU/yAtfS7GR9/foCQ5TVvVFQFMp5P2QEsLBd+cr3PVkMbPTll1/SggW6V8v7Dofj0kjjv2z26uMTbIc5S6E9Ul3/z0W+KzvVz1/cWvvIte2F5ZOJpF+2p4itBBWTLcHhyjz/23B1vcaNGT3BBu+AvLrIbhGH4K0QeNnMb29JSbNH1bhGhlvPcJ35yu/W/xz9ATuSnvBNOBFOdmZR6fVSitdMT7am4g6hKVcVj4+PnuAOxhSWX6dZ119kxg0rPz//As6+xj7/48ePp7ZtgzMqxkJX+L7FCVx7729TpAeYcOvi/f0hIShnQUHIqm63m/iPlHJu3v+3dy/wUVRn/8CfMwmJqHhHRERBarVYL2TDzQSEClgqWSAbLlXbipVssJW++hZb274v0L5/a21tq1bIhlpveOGShGy8VEABk6CBzILUW0UrCojiDbVSQrLz/D/Pshs2ySZ7ydlkNvnN55NPIJl55sz3TM4+e/bMOUVF+dHqesrql84zlP8JIo5zhYsjq6FGi4/f6xdAwqvfNKGIU0urpjMpefsZdXoqVrSgMj834kezLU/u8Xjkj7G2V69exrRp04yTT249tn3rXffRO88+H3gXfebo4WEhQrcHk7yAyCbJZ6Qt1AMrq2JNvO/OZrus+9GCwCpJzV+Ajt56Jw8ZRKEeXunNbS9+e9MO7dy5kzZs2CBj8nxz586NeVq8KWVVl6SRcSczR5+6gKk402pYsGrm+MhP1iRU+60PCqzKZ/T6PSkKLG3Z3qYUreW09AXeqaMC049F24qLi5cqpYouuugiGj26dcfV+y/VUfX/HnmGoq06O/2SI1OLtnU/yOpYoQdZxvzmF9R/5NHqaIpvGDTud5EfLoonfmhITKTrDr0BMgzjhrlz58Y2CWzgiezqnzJT291BYSdjUvMrXTltD26NViFx/H5q6ebpFll/UETntn9TkEzLvMDrymk9l1OEA5ctW+awLEvaCRW9ncijM0dnt2onlCKSN6TJaidC8SWxlbGdGtoJc+7cueEX0i6ptBMGB9roWFY2W3ri8X0WPHLlJdFXSIij/iPtGle5mJ6hXsZ879TLZCrEaJsqKSl5iZlHDBs2jIYPD39tOHLo+y9upeqFdwTbCumICM1NfLR9j/a3vLemtqmHd1rZQ5Rx/NGh9Ns9D9KbpZXB16ajnxKFFzxa/KbXpq8PoYl/af7aFIrz5Zdf0po1a+g/R1bym+t2u9t+6CT85DJzRlnN3THOsvO2Il4Q7+JE0SoJv49dAAlv7FZJ39NZUd3HsIwRlmXJX7a0LiNIBT6cNtliH6el1fXiDLPMlb0vnsKUlJTcxcy3XHDBBTR2bOtnaV57dDW98lBgGfmImyQ9oYS36d1yG/ue+52JlP1fzXO0uj8XB5aCbGuL56G1kbfOp3MmtH7uSKaRkSmGZAyvUurawsLCR+Mxkn2nrHxhRFq6Gs6sxF++BrAiU7Ey2VBmOvvN8vwxMptCp215qzdfYBj+EWypEcqQsvEIJjIVsSnf0wwy10wfE9dH6MuWLfsGM9cyc59ID6/JympP/6D9URXxjOG96uEldNwZR2cm/Pe+D+jpH7T/bEIofrQxvH0GDqDJ90d+4PLtt9+m5557Tu6HTYWFhXHP9uJ8vPpMqxc7DEUOYnKQoQI9OYG/R1ImK2X24kazzDU2rr/Hjt484e2E3A9KqeFN7UQHyuXxeP5IRDcn2k7EM4Z3yFWTyPGT5h3i0dqJeMbwjvzZ/MDS5y03He3EtPIqh98ihyLDwcQORfJvtYWJtyjFWy0rbUtlwWVvdLSe4z0+UrmatRV+MtfMjK+tKC4uvlYp9Yj08k6fPp1kueHw7d/vf0BPXxfb33K0Mbx9zjqTZO7u8G3X+o205c6230vGNYY3wmtT6FwyDE6GwymlNhYWFsY9w9P0stqvNyq/Q1nsUIodLO0F8T5iMkmRaVlkGhnK9E7NbXOYRLz1jf3jF0DCG79Zyh2xdOnSQWlpaVuYua8sQiGTzDdrVKI8GBDPQ2vDbryezps0QM89AAAgAElEQVR2VbP4O8ufom1L2xw+SPE8tCa9x9KL3HLbvn07bdmyRX78jNvtjm2ljZSrSX0F9ng8/0dEvzz33HNpwoQJrQJ7Z99Ahz79rM0Txprw9j71FMp7vPWw2FjjR0t4Zdnp0b+8JWI5Kysrad++ffIill9YWBjXks/6pFMn0rJlywYH3wgl1E7Ek/AOu/GHdN605n+mMmWVJEVtbfEkvGgn9N13Ho9Hpjb8dluzeMT6txwt4R14+WU0+pfNZ2T49M23af2Pb23zYuJJeCO9NklgeUitvLycGxoaFDO7ioqKyvTpIZKdBJDw2qk2klgWj8fzSyL6v0grKn24bQdt+lnbQ4ri6eG9/I6F1C/r4mZX0t4qPLJjrD28x/XrS9/+6z2UlpnRLP4XX3wR+Djq0KFDktx8p7CwsGnu2SSSpnToZcuW9bMs6yUiGiQJryS+4Zs8tCYPpLS1xZrwDsgZQTkLf9YqTM3CO2jvi22vQh5rD++F358V8WGWsKnIytxu95FB5NiiChQXF/9KKfWbgQMH0uTJzYc8f+jbQZt+3nY7EU/CG6md+MB8mV64re3x+bEmvMf2PZUm/+0vaCei1nZsOxQXF39HKfVUWloaT58+XZ1yyinNDpThTzJMKVpbES3hjbQcuSxq8fe5P6GDH0Z+timehDfSPSdlrqmpoVdfDQzVQ1sR2y2Rsnsh4U3Zqouv4MuXLz/hq6++qpW1AGRYg3xsGb6FnoaNFDXWHt72HiyQ+Tt3rdsYsdCxJrxtTUkWarCY+dGioqKkLP0Yn3Zq7F1SUnILM9/Vr18/kqfzwzcZdrDuxgXU8FVgdoNWWywJr4zLnnTf70nm4m25yUehMrY7Wvz2enjbezCpvLycPvroI3l4cfy8efMi33ipUU2dWkppJw4ePCjDXS6INB2VfFIjn9hE2mJNeNtrJ2KJH22ltWHzrqfzpjf/lEnKW11dTa+99pr8c7nb7e5Wy7Em+yYpKSlZzszXDB06lHJzm08L/ckbO+m5+TKVc+QtlpXW2vtbbm9qslgTXpmiTqaqa7mFprGUnyulxhUWFgYm7MbWPQWQ8HbPeo14VR6PR6bpWiLLiMrSsi2HNsgE35EeBokl4T1pyCCatLT952PKpl5Djf851KpssQxpGDLlSnLMbz2DTlhPnsQd5Xa7JanHFoOAx+ORaWuklzdL5tmUBCd8k4dJahZHfsgjloQ3Z+GtNCBnZJsl2VP9Em3+deTnwmLp4c33Pkrpx7SeqWvz5s30yiuBFUH/6na758ZAgV3CBKK2E0X/TQf+1fqhsVgS3pOGDKZJS9t/3nZtlPjtJbx9LxpK4+/6Tav6lMUEZFEB2SzLGjlv3ry2P77A3dBKwOPxyB9yAFAedJUHXsO38NkaWh4cS8Lb1t9yKJZ5j4fefnJtq3LFkvCm9z6G8itaP9LR2NhIMuxJ3hijregZNz0S3p5Rz01XWVJS8hAzf1+mo8rPz6fevZtPAfzktUV0cH/zj4+OPqmvmqYHC2c79vS+NGV5cVTJT9/YSesj9AREiy9zuMpcri23Dz74gLxeb+jHsopwSdRCYIdmAsXFxROVUrL6kyELUciCFLG8kIXq7OAHH9GWu1pPDC/zOctHlNG2tl4o5U2WPPG9t2ZL0xPc4bG+9efb6bShrSfDl48mpcdfHj5JS0tztjeXZrSy9eTfR28n3HRw/8fNiEJ1RtRGO9Gvb2ARkli2SONCo7UTbbVDb775Jm3ceKSTn5n/u6ioSB7OwxangMfjkQG2gXcr48ePp/POa76auszWILM2tNxC98X7m7dEXFr4ij/fTqdG+FtuGaf6f26n92ubP597dGahyPecxJAlhU85v/UaQ6EZXIhoe0NDw4Qf//jHn8RJgt1TTAAJb4pVmI7iejweaTWyTj31VHK5Wg9v3Lnmadq2JLYZnCI9fNJeGdlvke8vy+jtp1q/W295nJGeHkh0+49oPc2hTB+zfPlyeQGTwxa73e7I81vpAOvmMTwez81EFEgC5ONK+dgyfPtyz16qvfNekjcs0bZTLjiPZCYNeeI61u3TN9+i6v+9o92H5EKxzhyVTSN/9pOIC03s3buXnnrqKUl2DxPRRYWFhZ06o0as15sq+3VlOyFG0VaADHdsqx2S8f0rVqwItRMPuN3u61PF347lLC4ufkApdZ1SimbPnk19+jRfqXrfFl9g0RqrsTFq8dv7W27r4Hefr6LaO9pfWTF07JApkwJL3SvDaBUutPoiMzcahnF5YWFhUuZUj4qAHTpVAAlvp3Lb42Qej+dsIpLsJWPAgAF01VWtx7vJg2yvPPQEHXjrHfIflvzh6JaWkUEnfW0wffMHs6nfsOYPqMV6hZLwvuX9O33+zrutDsk88QTq+81v0CVF19Fx/U6PGPLxxx8nmTsRDxrEKt7+fh6PR97hBJKBgoICavlgivz85WUP056qF0mWBm65HXfG6XTWmNF0ydzvJ1SgQ58dIN+9y+ijf7xG9Z9/0SrG8f3PIHmK+6Lrr4kY/9///jc99thjgd9h3G5CVdDqoFjbiVcfeiKwkmIy2gmZH3xn+ZN04F+t24mj7dB3qd+w5h+xhy7m4YcfDjzMSkRb3W535Ilc9XD1mCgej0e6cbPl08Hvfa/1UGhZbvjl4gfpo1deT+hvORrkx6+8Tjv++kjgnmg8UrfNthMHn0Nfc06mIVdFni45fHgLM19fVFT0QLRz4vfdQ8DWCe+KifnyeXVeAtSVs9aVxblSUgJnSeFDli1bNtGyrEA3a3urK/kPN9CBt99pGtsrY3VlHF5ahp5VCyW5kfGAMnb4mJNPIol/4iDJx9veZBiDDGcgoi/dbnfziSFTuE66uujFxcW1SgXmIKbrr7+eZKx3pE1e0KS+5L6Qe0HqrK03Jolc0+e73gvEl2nR5MXrxMFnk0xv1tYmCY0kNrIppeYUFhZGXq84kcL08GPs0k7Iw43y5vjzd96TSg7cc9HaIZm5Zf/+wJuz/7jd7tbLhPXwuu3I5Xs8Hlmh4ZhID7yGx433bzmeMrHfH7gfDux6l+oPfNF0T2Se0LzXOTxm6FOg4M/udLvdrcfKxVMI7JtSAvZOeCflLyKm+JbSDLzq0eJZa8vwEXeUW9Hj8fyYiAKzerc12byd7ub6+npatWoVHTx4ZOaAw4cPD7jpppvet1MZU70sHo9HVoYKJAcy3EWGvdh5C62uFyzjY263O3IXsJ0vwuZlS7V2oqGhgcrKyujzzz8PvQk6H8Nb9N5kHo9Hpvl5XaKedNJJgUUpevXS0wmit6RHo4WP5VZKVRQWFk5L1rkQ154Ctk54V02aPtti1fYSYG2YGoq/O2Nt+RP2JLdXqTwezw1EFFgZQGZtkDlZMzKaz3NrhxK/++67tH79epKVkmTDk9bJq5WSkpI6Zg6sBXzFFVfQkCFRV7tOXmHaiRw2zZTstcbtdk/vkoL0gJOGtxMyR6/cF3ZsJ2SaKfkESJ7Al42ZLywqKgrMRYZNr0BJScnXmfmfElWS3by8PDrttNP0nkRTNJ/PR3V1TXMF3+d2u6WzB1sPE7B1wrt88jUn9Go4uIWUav04dlsVxfzPhl7Hjrj2mUdbDwTsYZUb6+UWFxePVkoFBu2ffPLJNG7cOOrbt2+shyd9P5liSqaaCm57g8nu3qSfuAefwOPx/JaIApNrZmdnU1ZW6wcHu4pHevrlqXt5ExTc8ALWCZVh93birbfeInkYSTal1KuNjY1jbrzxxraXC+wEs+5+invuuSczIyPj7zKHrVyr3d4gS1shrx3ySVDwvigoLCws7e71guuLLGDrhFeKvGKC60pSLNMmxbax+vas9aXPxrYz9goJBD+ikoZgqPTcjBo1qtXiFJ2tdfjwYfrHP/5Bptk0Fc0mt9st65wHpmbAllyBkpKS65g58ECHTEF06aWXBt4QdeW2Z8+ewBLS0pMnGzP/vKio6HddWaaedO6W7YTMySpzOHflFqGdwGwMnVwhJSUltzPzbXJaeSZEliHu6iEO0lZIr25wHPeHwSXGMRtDJ98bdjqd7RPeQNIb61hejN3t0L21dOnS09PS0h5g5sAi9zLEQRqulgtUdOgkMR78xhtvBJLdzz470kHDzPcXFRXJ8AtsnSiwdOnSKw3DkPmNz5Y3QjLhvHx19sfZch/I/SD3hWxKKRm7PR+9NZ14MwRPJctSM/PfQu2EDHGQe8Im7cQfi4qKZL5YbJ0sUFxcfJNS6h45rbwxlteOrngz1LKtIKK1lmW5582b13q1lE42wum6ViAlEl4hemLC9G8opf5ERFdGIHuWmW+evb48MIgeW+ICwdW3/oeIbiSiwBNL8kCbvKB1Ru+evCuXaWPkezCx2WFZ1tKioqLYZqxP/NJxZBsCHo9H5nySJOIHoRczuR9aLk+dDMBQ750ku/Lv4PY3wzDunjt37o5knBMxowssWrQo44wzzvgfpZSs3tjl7QQR7WBmtBPRqy6pe5SUlDiZWdbwnSAn6sw3Q6G2YseOHdzQ0CC5zb+J6J76+vpfz58/vz6pF47gKSGQMglvSPOxK10X9rKsoZZSFxrMrzYYxmtXP1v6akpop1AhlyxZcq5hGPOUUpL4HturVy/r4osvNs4880zq37+/1iuxLCuQ4O7ataupBy84T/DS+vr6JWistHInHCy4Kpu8mAWmCpQXM3mgTXr2jj1W76xPBw4cCNwTr7/+elMvPxHJRLtL3W53dcIXgQO1CnR2O/Hee++RfIV6+pl5p1JqSX19/VK0E1qrtkPBgsOhpK0IDP6XN8fnnHNOoM0wIiwE0ZGTffLJJ7Rv3z567bXXGg8cOBCaS3GpYRj3zp07F51gHcHtZsemXMLbzfxtfznFxcVDg704kvgGlqzp06ePNWDAAEMaMPlKZJN345LQBF/A/IcOHUoLxtmtlFr61VdfLb355psPJBIbxyRXoLi4eJZhGDcxc46cyTAM7t+/v5JFTAYPHkwnnnhiQgWQcbm7d+8OfAXnWQ7EYeZywzCWFBYWrk8oMA5KukCwnZA2Qnp8tbUT8tCRvBGWe2LPnj3W4cOHQ8tmoZ1Ieq127ATyaaFSStoJSXwHSbTMzEz/gAED0iTxHTRokPw/oZN8+OGH9M4779DevXv9n3zySei1Q2KtSEtLu/eGG26oSSgwDurWAkh4u3X16ru4JUuWONLS0r4tD+LKUuqhyGlpaYFk55hjjiFZeSf8uzy0IEsAy8IA4V/yM3lHHrbJQN1niOiFjIyMijlz5gRWlcBmb4Hi4uLvGoZxBTPLx5dN73xk6IskvXIvtPySK5J7IXRfhL5//PHH1sGDB5vWAFVKvWRZ1gbDMDYVFhbiIVR73wpNpVu2bJnDsqy42glZ4KRlGxG6R1q0EzKx7nPM/FxmZmYZ2onUuCmCY75lysDxzCyvHU1TAMknhpHaCXktkfmUI90X+/fvD+8gkfH8W5h5IzNvKCoqiv0B99TgQyk1CiDh1YjZU0JJAyZjqf1+/7eVUjKmuu1lsNpG+SczVxLR388///xN48ePj774ek8BTsHrXLp0aY5hGFfK/cDMiS7hKisrVjY2Nm780Y9+9FYKMqDIYQKa2gm5D55VSv2dmZ91u90NQE5tgWXLln3LsixZ91e+AvN9x7Mxs3SQrFNKrbMsaz0eRotHr2fvi4S3Z9e/lquX2R3S09MHMvPZzDxQnugPfpfPtvcopXYz8x75kn8fPnx4z/z58zFPshZ9+wWRuTkzMzPPsixroFLqLPmS+yH4b2bm3UQkH0m/5/f7d2dmZr53/fXXy8+wdWMBaSeUUmcbhiFtRaCdUEoNtCwL7UQ3rvf2Li04j+/ZaWlpAxsbGwP3RvCekPXlP5fXCyJ6z7Ks3enp6e81NjbunjdvXmC9aGwQiFcACW+8YtgfAhCAAAQgAAEIQCClBJDwplR1obAQgAAEIAABCEAAAvEKIOGNVwz7QwACEIAABCAAAQiklAAS3pSqrtQp7IyVG44/rDIvpjRrJBPvMZThWzM95+3UuQKUVLfAFG/V2UajylYyo4PfqM3g+h2rZo6XyeGx9VCBVu3EYcO3ZjbaiR56OzRddt7q6gsV8UhWSilO3+otGIVFZnr6TaHh+pHwakBEiCMCU1ZVjTOUmqUUXcJEo1u78B4itZUs3uGdMWYR3Lq/wNSymjnMfAUpGk5MX295xYroRWZ6mQ21qjI/5/nuL4IrnLaqapwl7YRBlzBHaCcU7SbmOiLjZa8rZzHEeoaAs7RqESl1KR25J05vdtVMXyiDXrIs2qGsBo935njM4tIzbgutV4mEVytnzw3mXFW1iAy1MA6BWsX8k4qCMbVxHINdU0jAWVqzkohnxFpkpegPFfm5C2LdH/ulnkAgqaH42gnLsOY/OX3sltS7WpQ4FoGpq6tGWoruUaRinc5wHxl0u3d67l9iiY99IBASQMKLe6HDAnll1RsU07iEAlm8GL29CcnZ9qC88urJyqKVRHR8AoV8NdNvjF0187JPEzgWh9hYYGpZ9QZOtJ0gtQi9vTau3ASL5iytWUjECX3ax0RPV7pyr0rw1DisBwog4e2Bla7zkp2l1dzheEpVePNzpnU4DgJ0uUBeafUPFdFfO1yQ9PQzvFNHfdjhOAhgCwEt7QRThbcgF+2ELWq044VwltWsIeapHYzEXldu0wqNHYyFw7u5ABLebl7Bybw8Z2nV74jUrVrOoWiSNz93nZZYCNIlAt9ZueGM9LRezdaMTrggTP/0FuRekPDxONA2As6y6juJSc9QFbQTtqnXjhRkyqqaSYbBWpYMV8S/q3CN+XlHyoNje4YAEt6eUc/ar9JZVj2RmNZqDYxePa2cnR1MU49NU7HZogWVM3L/0NnXgfPpE9CZ2ARLxVSf3t97NXr/9dVS50bS+sY4VHS8EercSkzRsyHhTdGK68piOyte6keNjRuJSGsPnCJ+pMI15vtdeW04d2ICeWXVP1VMv0/s6HaOwguZdtLOChhoJ/yNm4jpfM3nfNjryv2B5pgI10kCU0trHmbi7+k8HRO/nq6MceX5OVh2WCdsN4uFhLebVWhnXI6zrOouYnVLMs7FSk2rzM+pSEZsxEyOwJSVmwcY6dZuYkpGe1LjdeXmJqfkiJpMAWdZzV3EjHYimcgpFtu5qmoGGUoeaE3Cpu7yunJ+moTACNlNBJLxAtVNaHAZbQk4y6pfIKYxSRL6hdeV+9skxUbYJAhMK988zbKs8iSEJmL6zFuQe0pSYiNoUgWcpdVVRJSUNytKGbdV5F92R1IvAMG1C2gdz92qdOoFryvncu2FRsBuI4CEt9tUZedcyOR7ns7sNeCEz4koMxlnZOJHKjGsIRm0SYvpLK2+nYhuS9YJLPZ//cmCy3cmKz7i6heY/PTTmb3+c8IXRJShP7q8D0I7kQzXZMd0ltZsJOJkJaWHMv3vn7hq5szDyb4OxE9NASS8qVlvXVbqKWVVuQYr6blJ1lbndeUOT1ZwxNUvkLe6ar1S6gr9kY9EVMzOioIxlcmKj7j6Baauqh7DBr2gP3JTRLQTScRNVmhnafVBIuqdrPhEable1+ia5MVH5FQWQMKbyrXXBWV3rq66hZS6K/zUZ59wXO3VQ8+uT6Q4d7z0+tgWx33ldeUmsmBBIqfHMRoEnGU1nxPzCeGhfj7qGwklO5t27z/xxb2fXNKsWIpu9ebn6n8gTsO1I0RkAWdZzS3E3Lyd6NO79uoLB6Gd6KE3zbTyKodlqbqWl59oW3GvuXPsVw2NzZsKRbdU5Of+qYcS47KjCCDhxS0Sl4CzrGoGcfOHDiThvXfCpSPjCkREnx1qePG6p7fIuulhm9rldeUMjjcW9u86AefqqldJqaHhJfh17je3XHL6ibEuFdp06B21b7zcMuFlUnMqXTkPdt0V4szxCuStrp6pFK1o9sa4T+/aeydmaWonaJfXlYt2It6K6cL9v7NyyxnpaYdbzdP9aN7IV4/vlX5hvEW7urKWWiW8pGZUuHJWxxsL+/cMASS8PaOetV3ltPKaIZbFbzV7IdOY8GK5SG1V1WmBnKXVsrLaD5OX8NLoSlfuS512QThRhwWcKzd8jdJ6NRt3fbbehPcpryt3SocLigCdKpBXWv22Ijo3/KQ6E14/8ZCnXGP+1akXhZOljAAS3pSpKvsU1FlatZtInRUqkfTwzvnmOQktMbx482ujwq9MKfpDRX6unlWZ7EPWrUviLKsuIqal4Re58LKhCSWoa9/9sHfLHt4Gv3X6MzPHftStEbvhxU0trdnNxEfbiT69a+dcNFhLO0GKfu/Nz9WzymM3tLfrJTlLq5cT0TU62oo/bH1zVPMeXt7tdY05267XjnJ1vQAS3q6vg5QrgbO0uoyIpiel4EzzvAW5xUmJjaBJEZi6avNlbFjJelAEH10npdaSHzRvdVW5UmpaMs6kiIoqXLmeZMRGzOQJOFdXLyBFdyblDExl3oJcV1JiI2i3EEDC2y2qsXMvwrmqahEZamEyzqqIJ1a4xqxPRmzETI7AjJUbjq83er1KivT3rjBVeAtyk5I0JUcDUUMCztKqRURoJ3BHHBWYVl4zybL42eSY8CKva8zi5MRG1O4ggIS3O9RiF1yDs7RaPrKO+wGU9orKRJ5KV25RF1wOTtlBgaml1W4m0t0zf1gxj60oGFPbweLh8C4SyCutqlWk4n54sf12gj2VrjFoJ7qoTjt62qml1cVM5O5onGbHM9d6C8Y0Gx6nNT6CdQsBJLzdoho7/yKmrq4ayUolNE4zYmmZ3vMW5J7T+VeCM+oScK6uXkOKpuqKRxYv9s4Ys0hbPATqdAHd7YQierfClTuo0y8EJ9Qq4CytfpdI3ydCTGpEpStnq9ZCIli3E0DC2+2qtPMuSOfQBsU8Cj15nVd3yTqTs7Ra5lnVsbpWrdeVix6bZFVUJ8bVObTBMIyRa6ZftqUTi49TJUFA5xshpWhhRX7ur5NQTITsZgJIeLtZhXb25UwtrfYyUV6HzouevA7x2engqWteHMl+f0d7/t/zutDbb6d67WhZnKurKkmpDk4jphZ5XTkYo9nRyrDJ8Vo6TDDG3ya1mRrFQMKbGvVk61I6y6rziak0gUJuMww1Y830nLcTOBaH2FjAWVZzPzFfH3cRmW7yFuT+Je7jcIDtBTrSTviJCzC/qu2rOO4CHpnXnVYR8bC4D1Y0yZufuy7u43BAjxVAwttjq17vhTtXv3AxG8bdimlcTJHRqxsTUyrvlFda9T2l1B+J6bTo18GblWUtqJhx+ebo+2KPVBWQdkIZxt0caztB6NVN1bqOp9zxDHtRpB7h+v8s8F494cN4zoF9IYCEF/eANoEZKzf3PpTWOEux4WBFDkXkCBvPuUsRmUxkWoYyn5yes1bbiRHItgLO1S9dTNQwngw1nFie1ufzgoU9TKTqAveEYvPQcX1Wr73ykq9seyEomDaBvMrKY+nwKTMVsYOpnXbCUuaTM9BOaIO3eaAjU5ZZI+QBNEUkM3v0Cxb5E2YylSKTWZmVBTmJfJpo86tH8TpDAAlvZyj34HNMK69yGFbv98tc2a3WUO/BLD320p0VL/UzrIaz1kwfY/ZYBFx4K4Ej7QS/X+Yai3YC90dAYMrqTef1MgxVnj/mTZBAQIcAEl4diogBAQhAAAIQgAAEIGBbASS8tq0aFAwCEIAABCAAAQhAQIcAEl4diogBAQhAAAIQgAAEIGBbASS8tq0aFAwCEIAABCAAAQhAQIcAEl4diogBAQhAAAIQgAAEIGBbASS8tq0aFAwCEIAABCAAAQhAQIcAEl4diogBAQhAAAIQgAAEIGBbASS8tq0aFAwCEIAABCAAAQhAQIcAEl4diogBAQhAAAIQgAAEIGBbASS8tq0aFAwCEIAABCAAAQhAQIcAEl4diogBAQhAAAIQgAAEIGBbASS8tq0aFAwCEIAABCAAAQhAQIcAEl4diogBAQhAAAIQgAAEIGBbASS8tq0aFAwCEIAABCAAAQhAQIcAEl4diogBAQhAAAIQgAAEIGBbASS8tq0aFAwCEIAABCAAAQhAQIcAEl4diogBAQhAAAIQgAAEIGBbASS8tq0aFAwCEIAABCAAAQhAQIcAEl4diogBAQhAAAIQgAAEIGBbASS8tq0aFAwCEIAABCAAAQhAQIcAEl4diogBAQhAAAIQgAAEIGBbASS8tq0aFAwCEIAABCAAAQhAQIcAEl4diogBAQhAAAIQgAAEIGBbASS8tq0aFAwCEIAABCAAAQhAQIcAEl4diogBAQhAAAIQgAAEIGBbASS8tq0aFAwCEIAABCAAAQhAQIcAEl4diogBAQhAAAIQgAAEIGBbASS8tq0aFAwCEIAABCAAAQhAQIcAEl4diogBAQhAAAIQgAAEIGBbASS8tq0aFAwCEIAABCAAAQhAQIcAEl4diogBAQhAAAIQgAAEIGBbASS8tq0aFAwCEIAABCAAAQhAQIcAEl4diogBAQhAAAIQgAAEIGBbASS8tq0aFAwCEIAABCAAAQhAQIcAEl4diogBAQhAAAIQgAAEIGBbASS8tq0aFAwCEIAABCAAAQhAQIcAEl4diogBAQhAAAIQgAAEIGBbASS8tq0aFAwCEIAABCAAAQhAQIcAEl4diogBAQhAAAIQgAAEIGBbASS8tq0aFAwCEIAABCAAAQhAQIcAEl4diogBAQhAAAIQgAAEIGBbASS8tq0aFAwCEIAABCAAAQhAQIcAEl4diogBAQhAAAIQgAAEIGBbASS8tq0aFAwCEIAABCAAAQhAQIcAEl4diogBAQhAAAIQgAAEIGBbASS8tq0aFAwCEIAABCAAAQhAQIcAEl4diogBAQhAAAIQgAAEIGBbASS8tq0aFAwCEIAABCAAAQhAQIcAEl4diogBAQhAAAIQgAAEIGBbASS8tq0aFAwCEIAABCAAAQhAQIcAEl4diiggZRcAABEsSURBVIgBAQhAAAIQgAAEIGBbASS8tq0aFAwCEIAABCAAAQhAQIeA7RPeaeXbTvLzwSzlt8ZaZG02MjJf9k4d9aGOi0cMCEAAAhCAAAQgAIHuL2DbhHdaeY3LsugWIr6sVTUw7yDDeMibn/PH7l9FuEIIQAACEIAABCAAgY4I2DLhda6uvpcU/TjahTHT2sqC3Cuj7YffQwACEIAABCAAAQj0XAHbJbzO0uoKInLGUyVeV67triOe8mNfCEAAAhCAAAQgAIHkCdgqUcwrr56pLFoR7+Uy058qC3Jvife4lvsPGzbsHMMwthLRUNM0P040XnZ29jg5tq6ubmOiMXAcBCAAAQhAAAIQgIAeAdskvHmlNcMV8ZZEL4uJbqh05d6f6PFyXDDh3UVEfTuS8GZlZS2SeD6fL/AdGwQgAAEIQAACEIBA1wnYJuF1llb/lYh+2AGKbV5XblYsx48ePbp3fX39LKVUH2Z+xufzvdVWwpuVlSVjhC82DOOVurq6Z8LjX3rppScZhjHTMAy/3+9/cdu2ba9J765lWYEeXsMwNkov7/Dhwy+X/1uWdSEzny6JcKgMhmGcblnWTp/PVx6KHeohtizrGCIapZR61TTNVbFcG/aBAAQgAAEIQAACEGguYKeE9xUiurADFXTQ68o9Ltrxw4YNG20YxpNE9AURyXjhnxDRfNM0723Zwys9tUqphUT0IBEdr5Q6vrGxcf727dt3Zmdnf4eZ7yMiGQIh2wyl1HhJdpVSgQRXNtM0xzscDg7+9wAz3y3HGYZRqZTaT0RvMPMlUh7TNGfIfg6HYwMRSRnnENF2IrqGmRejxzha7eL3EIAABCAAAQhAoLWALRJe52Pr+1HmMR90uILSjfO8Uy8L9Na2tTkcDkmst5umeW0wuZQkc2VGRsaphw4d6mMYRmBIg1JqIDNXE9G3TNOsDe77FDNvlcTT4XA8EExoJSmlYHJ8uSS4LYc0BBPep/1+/4+2b9++y+Fw3KiUyqurq5scjNs/mPj+KRhbEt5Ashz8/U+J6KrQ/zvshAAQgAAEIAABCECgBwnYI+FdvXkYKcsXcv/hRYO9zvPOHBmtHp7ftX/H3b6dE0P7WYY18snpY9sdByzJJzNfm5aWtqfpOMvaKL2zfr//nVDCS0TTiOgGwzB+FtrP7/efpZS6IdhrK4nzfaZpLm1ZzkgJLzPP8fl80lNM2dnZHsuy9oX32Docjr8T0T7TNOcEe3hXmKZZHNx/HDNvME3TFvUVrV7wewhAAAIQgAAEIGAnAdskUM7S6q+I6FjBCSa8Uacme37X/nXhCS9nNPStzBvf7uwKwYS36WEypZRFRKyUqg5PeCVBlaEJ0qMrZTIMI2DFzMo0zYUSR5LkSDMxREp4w/eVhJaZ7/X5fGWhmyErK+uPSqkzTNO8Wn6vlFocii1jepHw2unPBmWBAAQgAAEIQCCVBOyU8K4lokBvbe5Zp+2IFbF6z8cXB/fd53XlnhntuGCientdXd0vw5JNGau71bKsV0I9vMw8Vin1sGVZX9+2bdv7oZ5WGaMbHHawkpn3+Hy+wHRoDoejiIhmtTWkIULC+4rP57spVAaHw1GrlPp/dXV1XiS80WoRv4cABCAAAQhAAAKxC9gm4Z26uvr3rEjGqia6VXtduWOiHZyVlXW/Uupb8hAYM69NS0srZOYCIsqxLEtmXWialszhcOwlorV+v39xenr6IGZeyMybJOHNysoqVEotUErNtyxrv/TIEtFB0zRnZmVl/ZdSarRpmrOCyXCz3uCsrKyFSqnrpAyZmZnew4cPX09E80zTHBLcHz280SoSv4cABCAAAQhAAAIxCtgm4c0vrevfSIfqiChqL22kazMMVbBmek5pLNednZ19KzPPJaKvMfMTzPwbmVIsOEvDI0SUH5qH1+FwrCQimZrsBGa+0+fzNY3pzcrK+p1S6moi+oyIHjdN87fBnuCJzFxCRO+Ypvmtlj22waRWHpaTGSDOYeYdhmH8MjSEoY0e3oV4aC2W2sU+EIAABCAAAQhAoLmAbRJeKVZe2eYpiq3KuCuJ6S/egtym4QFxH48DIAABCEAAAhCAAAS6rYCtEl5Rdq6qWkRGYO7bWDev15U7NdadsR8EIAABCEAAAhCAQM8SsF3CG0h6j0xTJkML2l2Igg2aVTk9V4YcYIMABCAAAQhAAAIQgEBEAVsmvFLSaeXbTrKsg7eRovPJ4gsC35neIoN2Kqa3LFKPVLpyQqucoXohAAEIQAACEIAABCCQWgkv6gsCEIAABCAAAQhAAAI6BGzbw6vj4hADAhCAAAQgAAEIQAACSHhxD0AAAhCAAAQgAAEIdGsBJLzdunpxcRCAAAQgAAEIQAACSHhxD0AAAhCAAAQgAAEIdGsBJLzdunpxcRCAAAQgAAEIQAACSHhxD0AAAhCAAAQgAAEIdGsBJLzdunpxcRCAAAQgAAEIQAACKZHwPnaFs1+6YfSfuW7NdlQZBCAAAQhAAAIQgAAE4hGwbcK7YmJ+DhPNMYhG8dElhg8Q0QsW07bvri9bFM+FYl8IQAACEIAABCAAgZ4pYMuEd8Uk13xivjtKlbxlkVH03XWrn+uZVYerhgAEIAABCEAAAhCIRcB2Ce+KifncsuAz15YGfrRykqvVNSlFN8xcW3Z/LBeLfSAAAQhAAAIQgAAEep6ArRLeFRPyl5Oia+JJeGVfZh46e335611ZfVlZWQvl/D6fb3FXlgPnhgAEIAABCEAAAhBoLmCbhPeJSdMmKzaejlRB7fXwBvd//mDDCVfN2fjgoa6q4KysrEVKqctN0xzfVWXAeSEAAQhAAAIQgAAEWgvYJuFdMTG/mIjcCSa8FO/QhlCPrGEYW5l5OhH1JqJ7TdOslTKEfq+UGkREgySRHT169Cn19fW/UkoNk85c0zT/W/bNzs4eZ1nWOEl4mXmTz+cLPFAnMZRSI5j5E6VUpWmaq8L2v5yInlRKFRHRmcy8NXQcblQIQAACEIAABCAAAX0CNkp4XduI+NJEE14mun/2urIbYqUJJqOSpH7JzI8opS5j5v9i5myfz2c6HI4NkssS0cfM/JBS6k4iqmbmCsMwNjHzWCJabJqmCia8lyulxoUS3qysrPuVUiOJ6FdEdBoR/ZqZSySplf2ZWeLLcAy3UuoSIrqRiKaYpvlUrNeA/SAAAQhAAAIQgAAEogvYIuFdOXlGX27075fiTlv1QKu5djNOPCGQCB/+4ovmv2OirX+6j/ZurrtUEb06c13ZN6Nf8pE9ggnvz4noXNM09wV/tk4pZZqm+fNgwnumaZrnh+1/g2maA0PncDgcTxLRP0zTvC2UQEtPcCihtSzrsm3btr0o+2dnZ9/MzH8MJciS8DLzeT6f7y35vcPhkO/y+yWxXgP2gwAEIAABCEAAAhCILmCLhPfxCa5hhmKfFDc0Xjd60Y/sUbPot9sl4SWmL2etLzsh1uOCCerVoYQ2mJR6iKh/XV2dUxLe8OEJDofjMSJKN01zZljCex8R9ZWfRUh4HwlPjocNGzbUMIxXwxNe+XdYrGbni/U6sB8EIAABCEAAAhCAQPsCtkh4pYgrJuZ/RUTHDrgsu1UPb86i2wI9vJLcRrqcQMJL9PysdWVXxFrhwQR1qmmaWWFJ53L5t2ma10ZIeFdKJ7P8Lnx/pdRXdXV17ggJ7wOmaQ4O7ZuVlfU1pdSTpmleEOoBRsIba21hPwhAAAIQgAAEIJC4gJ0S3rVENDHSpcQwS4Mc9rtZ68pkiEJMWzBBvTUjI2Pgiy+++Kkc5HA4/klEpaZp/iJCwvtbIsoP7xEO7v8reRgt0pAGIrrYNM1/SOysrKxCpdT58qAbEt6Yqgg7QQACEIAABCAAAS0C9kl4J7l+T8w/TTjhNVTBrGdLj6xQEcMW9tDaJsuydhmGkcfM5/j9/gnbt28/0DLhzcrKciil6ohoo1JqcXBWhoXp6ekDa2tr9zgcDnnoTIY4zJQEODgGeBAzL1ZK9SGiXyilbqqrq1uNhDeGCsIuEIAABCAAAQhAQJOAbRLe1ZNcF/gt9pEKTA/WbIuhh9cza12ZTO8V8xZKeJn5LqXU92WaMcMwHty6desHEkTm1ZXv4VOFORwOmXXhOiK6gIjeIKIHQ9OYyb4Oh0OmKRsZGucbnJt3uExLRkTP+ny+R2W/0DRm4bGD06ApTE0WcxViRwhAAAIQgAAEIBCTgG0SXintikn5txHT7XEmvPWnN3x6/PiNGxtjuuLgTuFDEOI5DvtCAAIQgAAEIAABCKSWgK0S3mDSu5qYXOGMgydPeEj+/84z63/Qkpf95Jj9fFlghod4NiS88WhhXwhAAAIQgAAEIJC6ArZLeIXy8QnTxhnKkIUehrdFqxStmLm2bHai9DKsQI6tq6vbmGgMHAcBCEAAAhCAAAQgYH8BWya8wnZ/jrNPn+PSZ1pMow2iUUw0gJg2kuKXmHjb7HVrZFYHbBCAAAQgAAEIQAACEGhXwLYJL+oNAhCAAAQgAAEIQAACOgSQ8OpQRAwIQAACEIAABCAAAdsKIOG1bdWgYBCAAAQgAAEIQAACOgSQ8OpQRAwIQAACEIAABCAAAdsKIOG1bdWgYBCAAAQgAAEIQAACOgSQ8OpQRAwIQAACEIAABCAAAdsKIOG1bdWgYBCAAAQgAAEIQAACOgSQ8OpQRAwIQAACEIAABCAAAdsKIOG1bdWgYBCAAAQgAAEIQAACOgSQ8OpQRAwIQAACEIAABCAAAdsKIOG1bdWgYBCAAAQgAAEIQAACOgSQ8OpQRAwIQAACEIAABCAAAdsKIOG1bdWgYBCAAAQgAAEIQAACOgSQ8OpQRAwIQAACEIAABCAAAdsKIOG1bdWgYBCAAAQgAAEIQAACOgSQ8OpQRAwIQAACEIAABCAAAdsKIOG1bdWgYBCAAAQgAAEIQAACOgSQ8OpQRAwIQAACEIAABCAAAdsKIOG1bdWgYBCAAAQgAAEIQAACOgSQ8OpQRAwIQAACEIAABCAAAdsKIOG1bdWgYBCAAAQgAAEIQAACOgSQ8OpQRAwIQAACEIAABCAAAdsKIOG1bdWgYBCAAAQgAAEIQAACOgSQ8OpQRAwIQAACEIAABCAAAdsKIOG1bdWgYBCAAAQgAAEIQAACOgSQ8OpQRAwIQAACEIAABCAAAdsKIOG1bdWgYBCAAAQgAAEIQAACOgSQ8OpQRAwIQAACEIAABCAAAdsKIOG1bdWgYBCAAAQgAAEIQAACOgSQ8OpQRAwIQAACEIAABCAAAdsKIOG1bdWgYBCAAAQgAAEIQAACOgSQ8OpQRAwIQAACEIAABCAAAdsKIOG1bdWgYBCAAAQgAAEIQAACOgSQ8OpQRAwIQAACEIAABCAAAdsKIOG1bdWgYBCAAAQgAAEIQAACOgSQ8OpQRAwIQAACEIAABCAAAdsKIOG1bdWgYBCAAAQgAAEIQAACOgSQ8OpQRAwIQAACEIAABCAAAdsKIOG1bdWgYBCAAAQgAAEIQAACOgSQ8OpQRAwIQAACEIAABCAAAdsKIOG1bdWgYBCAAAQgAAEIQAACOgSQ8OpQRAwIQAACEIAABCAAAdsKIOG1bdWgYBCAAAQgAAEIQAACOgSQ8OpQRAwIQAACEIAABCAAAdsKIOG1bdWgYBCAAAQgAAEIQAACOgSQ8OpQRAwIQAACEIAABCAAAdsKIOG1bdWgYBCAAAQgAAEIQAACOgSQ8OpQRAwIQAACEIAABCAAAdsKIOG1bdWgYBCAAAQgAAEIQAACOgSQ8OpQRAwIQAACEIAABCAAAdsKIOG1bdWgYBCAAAQgAAEIQAACOgSQ8OpQRAwIQAACEIAABCAAAdsKIOG1bdWgYBCAAAQgAAEIQAACOgT+PyMt1ugKqisIAAAAAElFTkSuQmCC;" vertex="1" parent="1">
          <mxGeometry x="90" y="240" width="700" height="400" as="geometry" />
        </mxCell>
        <mxCell id="wIRcrk6L0L3zP5zlA5GW-5" value="" style="endArrow=classic;html=1;edgeStyle=orthogonalEdgeStyle;curved=1;" edge="1" parent="1">
          <mxGeometry width="50" height="50" relative="1" as="geometry">
            <mxPoint x="520" y="360" as="sourcePoint" />
            <mxPoint x="400" y="360" as="targetPoint" />
            <Array as="points">
              <mxPoint x="520" y="310" />
              <mxPoint x="400" y="310" />
            </Array>
          </mxGeometry>
        </mxCell>
        <mxCell id="wIRcrk6L0L3zP5zlA5GW-6" value="" style="endArrow=classic;html=1;edgeStyle=orthogonalEdgeStyle;curved=1;" edge="1" parent="1">
          <mxGeometry width="50" height="50" relative="1" as="geometry">
            <mxPoint x="370" y="360" as="sourcePoint" />
            <mxPoint x="250" y="360" as="targetPoint" />
            <Array as="points">
              <mxPoint x="370" y="310" />
              <mxPoint x="250" y="310" />
            </Array>
          </mxGeometry>
        </mxCell>
        <mxCell id="wIRcrk6L0L3zP5zlA5GW-7" value="" style="endArrow=classic;html=1;edgeStyle=orthogonalEdgeStyle;curved=1;" edge="1" parent="1">
          <mxGeometry width="50" height="50" relative="1" as="geometry">
            <mxPoint x="220" y="360" as="sourcePoint" />
            <mxPoint x="100" y="360" as="targetPoint" />
            <Array as="points">
              <mxPoint x="220" y="310" />
              <mxPoint x="100" y="310" />
            </Array>
          </mxGeometry>
        </mxCell>
        <mxCell id="wIRcrk6L0L3zP5zlA5GW-8" value="" style="endArrow=classic;html=1;edgeStyle=orthogonalEdgeStyle;curved=1;" edge="1" parent="1">
          <mxGeometry width="50" height="50" relative="1" as="geometry">
            <mxPoint x="680" y="360" as="sourcePoint" />
            <mxPoint x="560" y="360" as="targetPoint" />
            <Array as="points">
              <mxPoint x="680" y="310" />
              <mxPoint x="560" y="310" />
            </Array>
          </mxGeometry>
        </mxCell>
      </root>
    </mxGraphModel>
  </diagram>
</mxfile>
